<svg aria-hidden="true" style="position: absolute; width: 0; height: 0; overflow: hidden;" version="1.1" xmlns="http://www.w3.org/2000/svg" xmlns:xlink="http://www.w3.org/1999/xlink">
<defs>

<symbol id="icon-adults" viewBox="0 0 32 32">
<path  d="M9.067 24.133h-4.4c-0.267 0-0.4-0.133-0.533-0.267s-0.267-0.4-0.133-0.667c0.8-2.267 2.8-3.6 5.067-3.6 2.8 0 5.067-2.4 5.067-5.2s-2.267-5.467-5.067-5.467-5.067 2.4-5.067 5.333c0 1.333 0.533 2.667 1.333 3.6-1.733 0.933-3.067 2.4-3.867 4.4-0.267 0.933-0.133 2.133 0.533 3.067s1.6 1.467 2.667 1.467h4.4c0.8 0 1.333-0.533 1.333-1.333s-0.533-1.333-1.333-1.333zM6.667 14.267c0-1.467 1.067-2.533 2.4-2.533s2.4 1.2 2.4 2.533c0 1.467-1.067 2.533-2.4 2.533s-2.4-1.2-2.4-2.533z"></path>
<path d="M30.533 21.467c-0.933-2.533-2.8-4.4-4.933-5.467 1.2-1.067 1.867-2.667 1.867-4.533 0-3.467-2.667-6.267-5.867-6.267s-5.867 2.8-5.867 6.267c0 1.733 0.667 3.333 1.867 4.533-2.133 1.067-4 2.933-4.933 5.467-0.667 1.2-0.4 2.533 0.267 3.6s1.867 1.6 3.067 1.6h11.067c1.2 0 2.4-0.667 3.067-1.6 0.8-1.067 0.933-2.4 0.4-3.6zM18.267 11.6c0-2 1.467-3.6 3.2-3.6s3.2 1.6 3.2 3.6-1.467 3.6-3.2 3.6c-1.733 0-3.2-1.733-3.2-3.6zM27.867 23.6c-0.133 0.133-0.4 0.533-0.8 0.533h-11.067c-0.533 0-0.8-0.4-0.8-0.533-0.133-0.133-0.4-0.667-0.133-1.2 1.067-2.8 3.733-4.667 6.533-4.667s5.467 1.867 6.533 4.667c0.133 0.533-0.133 1.067-0.267 1.2z"></path>
</symbol>
<symbol id="icon-air-conditioner" viewBox="0 0 32 32">
<path stroke="#101828" fill="white" stroke-linejoin="round" stroke-linecap="round" stroke-miterlimit="4" stroke-width="2.4" d="M28.571 1.143h-25.143c-0.606 0-1.188 0.241-1.616 0.669s-0.669 1.010-0.669 1.616v11.429c0 0.606 0.241 1.188 0.669 1.616s1.010 0.669 1.616 0.669h25.143c0.606 0 1.188-0.241 1.616-0.669s0.67-1.010 0.67-1.616v-11.429c0-0.606-0.241-1.188-0.67-1.616s-1.010-0.669-1.616-0.669z"></path>
<path stroke-linejoin="round" stroke-linecap="round" stroke-miterlimit="4" stroke-width="2.4" d="M25.143 17.143v-4.571c0-0.606-0.241-1.188-0.67-1.616s-1.010-0.669-1.616-0.669h-13.714c-0.606 0-1.188 0.241-1.616 0.669s-0.669 1.010-0.669 1.616v4.571M5.714 28.572h0.229c0.849 0 1.663-0.337 2.263-0.937s0.937-1.414 0.937-2.263v-2.514M26.286 28.572h-0.229c-0.849 0-1.663-0.337-2.263-0.937s-0.937-1.414-0.937-2.263v-2.514M16 30.857v-8"></path>
</symbol>
<symbol id="icon-alcov" viewBox="0 0 44 32">
<path stroke="#101828" fill="white" d="M2.518 2.289h11.981c0.101 0 0.196-0.039 0.268-0.109l1.151-1.123c0.335-0.326 0.779-0.506 1.252-0.506h18.168c0.846 0 1.631 0.41 2.101 1.097l2.177 3.186c0.309 0.452 0.337 1.031 0.074 1.51s-0.773 0.777-1.33 0.777h-9.364v0.923h4.796c1.271 0 2.415 0.737 2.914 1.878l2.808 6.42 2.46 0.96c1.314 0.513 2.162 1.735 2.162 3.116v5.946c0 0.887-0.74 1.608-1.649 1.608h-2.862c-0.333 1.968-2.089 3.475-4.2 3.475s-3.867-1.507-4.2-3.475h-15.645c-0.333 1.968-2.090 3.475-4.2 3.475s-3.867-1.507-4.2-3.475h-5.717c-0.808 0-1.466-0.641-1.466-1.43v-21.797c0-1.355 1.129-2.457 2.518-2.457zM35.427 30.091c1.581 0 2.867-1.254 2.867-2.796s-1.286-2.796-2.867-2.796c-1.581 0-2.866 1.254-2.866 2.796s1.286 2.796 2.866 2.796zM28.998 26.616h2.228c0.006-0.034 0.013-0.067 0.020-0.101 0.004-0.023 0.008-0.046 0.013-0.068 0.011-0.053 0.024-0.106 0.037-0.159 0.003-0.011 0.005-0.022 0.008-0.033 0.017-0.063 0.035-0.126 0.055-0.188 0.006-0.018 0.012-0.036 0.018-0.054 0.014-0.043 0.029-0.087 0.045-0.13 0.009-0.023 0.018-0.046 0.027-0.068 0.014-0.038 0.029-0.075 0.045-0.112 0.010-0.024 0.021-0.048 0.032-0.072 0.016-0.035 0.031-0.070 0.048-0.104 0.012-0.024 0.024-0.048 0.037-0.073 0.017-0.033 0.034-0.067 0.052-0.099 0.013-0.024 0.026-0.048 0.040-0.072 0.018-0.033 0.038-0.065 0.057-0.097 0.014-0.023 0.028-0.046 0.042-0.068 0.021-0.033 0.042-0.065 0.064-0.097 0.014-0.021 0.028-0.042 0.043-0.063 0.024-0.034 0.049-0.068 0.075-0.102 0.013-0.018 0.026-0.036 0.039-0.053 0.035-0.045 0.070-0.087 0.105-0.13 0.005-0.006 0.010-0.013 0.016-0.020 0.041-0.049 0.084-0.097 0.127-0.143 0.013-0.015 0.027-0.028 0.041-0.042 0.031-0.032 0.061-0.064 0.093-0.096 0.018-0.017 0.036-0.034 0.054-0.051 0.028-0.027 0.057-0.054 0.087-0.081 0.019-0.017 0.039-0.035 0.060-0.052 0.029-0.025 0.058-0.049 0.087-0.074l0.064-0.050c0.029-0.023 0.059-0.046 0.090-0.069 0.022-0.016 0.044-0.033 0.066-0.048 0.031-0.022 0.062-0.043 0.093-0.065 0.022-0.015 0.045-0.030 0.067-0.044 0.033-0.022 0.067-0.042 0.1-0.063 0.022-0.013 0.043-0.027 0.066-0.040 0.037-0.022 0.075-0.042 0.112-0.063 0.019-0.011 0.038-0.022 0.057-0.032 0.054-0.028 0.108-0.055 0.163-0.082 0.004-0.002 0.008-0.004 0.013-0.006 0.059-0.028 0.119-0.054 0.179-0.079 0.020-0.008 0.039-0.015 0.059-0.023 0.041-0.016 0.083-0.033 0.125-0.048 0.024-0.009 0.048-0.016 0.072-0.025 0.038-0.013 0.077-0.026 0.116-0.038 0.026-0.008 0.052-0.016 0.079-0.023 0.038-0.011 0.076-0.022 0.114-0.032 0.027-0.007 0.054-0.014 0.082-0.021 0.038-0.009 0.076-0.017 0.114-0.026 0.028-0.006 0.056-0.012 0.084-0.017 0.039-0.007 0.078-0.014 0.118-0.020 0.028-0.005 0.055-0.009 0.083-0.013 0.041-0.006 0.082-0.011 0.124-0.016 0.026-0.003 0.053-0.006 0.080-0.009 0.046-0.004 0.092-0.008 0.138-0.010 0.023-0.002 0.045-0.004 0.068-0.004 0.070-0.004 0.139-0.005 0.209-0.005s0.139 0.002 0.209 0.005c0.023 0.001 0.045 0.003 0.068 0.004 0.046 0.003 0.092 0.006 0.138 0.010 0.027 0.002 0.053 0.006 0.080 0.009 0.042 0.005 0.083 0.010 0.124 0.016 0.028 0.004 0.056 0.008 0.084 0.013 0.039 0.006 0.078 0.013 0.117 0.020 0.028 0.005 0.056 0.011 0.084 0.017 0.038 0.008 0.076 0.016 0.114 0.026 0.028 0.007 0.055 0.014 0.082 0.021 0.038 0.010 0.076 0.021 0.114 0.032 0.027 0.008 0.053 0.015 0.079 0.023 0.039 0.012 0.077 0.025 0.116 0.038 0.024 0.009 0.048 0.016 0.072 0.025 0.042 0.016 0.084 0.032 0.125 0.048 0.019 0.008 0.039 0.015 0.059 0.023 0.060 0.025 0.12 0.052 0.179 0.079 0.005 0.002 0.008 0.004 0.013 0.006 0.055 0.026 0.109 0.053 0.163 0.082 0.019 0.010 0.038 0.021 0.057 0.032 0.038 0.021 0.076 0.041 0.112 0.063 0.022 0.013 0.044 0.027 0.066 0.040 0.033 0.021 0.067 0.041 0.1 0.063 0.022 0.015 0.044 0.030 0.067 0.044 0.032 0.022 0.063 0.043 0.094 0.065 0.022 0.016 0.044 0.032 0.066 0.048 0.030 0.023 0.060 0.046 0.090 0.069l0.063 0.050c0.029 0.024 0.058 0.049 0.087 0.074 0.020 0.017 0.040 0.035 0.060 0.052 0.029 0.027 0.058 0.054 0.087 0.081 0.018 0.017 0.036 0.034 0.054 0.051 0.032 0.031 0.062 0.064 0.093 0.096 0.014 0.014 0.028 0.028 0.041 0.042 0.043 0.047 0.086 0.094 0.127 0.143 0.006 0.006 0.010 0.013 0.016 0.020 0.036 0.043 0.071 0.086 0.105 0.13 0.013 0.017 0.026 0.035 0.039 0.053 0.026 0.034 0.051 0.067 0.075 0.102 0.014 0.021 0.028 0.042 0.043 0.063 0.022 0.033 0.043 0.065 0.064 0.097 0.014 0.023 0.028 0.046 0.042 0.068 0.020 0.032 0.039 0.065 0.057 0.097 0.013 0.024 0.027 0.048 0.039 0.072 0.018 0.033 0.036 0.066 0.052 0.099 0.013 0.024 0.025 0.048 0.037 0.073 0.017 0.035 0.032 0.069 0.048 0.104 0.011 0.024 0.022 0.048 0.032 0.072 0.016 0.037 0.031 0.074 0.045 0.112 0.009 0.023 0.018 0.046 0.027 0.068 0.016 0.043 0.031 0.086 0.045 0.13 0.006 0.018 0.013 0.036 0.018 0.054 0.019 0.062 0.038 0.124 0.054 0.188 0.003 0.011 0.006 0.022 0.008 0.033 0.013 0.053 0.026 0.105 0.037 0.159 0.005 0.023 0.009 0.046 0.013 0.068 0.007 0.034 0.014 0.067 0.019 0.101h2.861c0.142 0 0.257-0.112 0.257-0.251v-2.844h-1.085v-1.358h1.085v-1.744c0-0.822-0.505-1.55-1.287-1.855l-2.604-1.016h-9.857v9.068zM28.998 16.19h8.938l-2.508-5.735c-0.28-0.64-0.921-1.053-1.634-1.053h-4.796v6.787zM11.382 30.091c1.581 0 2.866-1.254 2.866-2.796s-1.286-2.796-2.866-2.796c-0.050 0-0.099 0.001-0.148 0.004-1.317 0.065-2.402 1.002-2.661 2.23-0.009 0.046-0.018 0.092-0.026 0.138-0.014 0.092-0.024 0.186-0.029 0.281-0.003 0.048-0.004 0.096-0.004 0.144 0 1.542 1.286 2.796 2.867 2.796zM1.391 22.163h1.085v1.358h-1.085v3.023c0 0.040 0.033 0.072 0.074 0.072h5.716c0.006-0.034 0.013-0.067 0.019-0.1 0.004-0.023 0.008-0.047 0.013-0.070 0.011-0.052 0.023-0.104 0.037-0.155 0.003-0.012 0.006-0.024 0.009-0.036 0.017-0.063 0.035-0.125 0.055-0.187 0.006-0.019 0.013-0.038 0.019-0.056 0.014-0.043 0.029-0.086 0.045-0.128 0.009-0.024 0.018-0.047 0.027-0.070 0.014-0.037 0.029-0.074 0.045-0.11 0.011-0.025 0.022-0.049 0.033-0.074 0.016-0.034 0.031-0.069 0.048-0.103 0.012-0.025 0.024-0.049 0.037-0.074 0.017-0.033 0.034-0.066 0.052-0.099 0.013-0.024 0.027-0.048 0.040-0.072 0.019-0.033 0.038-0.065 0.057-0.097 0.014-0.023 0.028-0.046 0.042-0.069 0.021-0.033 0.042-0.065 0.063-0.096 0.014-0.022 0.028-0.043 0.043-0.064 0.024-0.034 0.049-0.067 0.073-0.1 0.013-0.018 0.027-0.037 0.041-0.055 0.033-0.043 0.067-0.085 0.102-0.127 0.006-0.008 0.012-0.015 0.018-0.022 0.042-0.049 0.084-0.097 0.127-0.143 0.014-0.015 0.028-0.029 0.042-0.043 0.031-0.032 0.061-0.064 0.092-0.094 0.018-0.017 0.036-0.034 0.055-0.052 0.028-0.027 0.057-0.054 0.086-0.080 0.020-0.017 0.040-0.035 0.060-0.053 0.028-0.024 0.057-0.049 0.087-0.073 0.021-0.017 0.042-0.035 0.064-0.052 0.029-0.023 0.059-0.046 0.089-0.068 0.022-0.016 0.044-0.033 0.066-0.048 0.031-0.022 0.062-0.043 0.093-0.065 0.023-0.015 0.045-0.030 0.067-0.045 0.033-0.022 0.066-0.042 0.1-0.062 0.022-0.014 0.044-0.027 0.066-0.040 0.037-0.022 0.074-0.042 0.112-0.063 0.020-0.011 0.038-0.022 0.058-0.032 0.053-0.028 0.106-0.055 0.161-0.080 0.004-0.002 0.009-0.005 0.014-0.007 0.059-0.028 0.119-0.054 0.179-0.079 0.019-0.008 0.040-0.015 0.059-0.023 0.042-0.016 0.083-0.033 0.125-0.048 0.024-0.009 0.048-0.016 0.073-0.025 0.038-0.013 0.076-0.026 0.115-0.038 0.026-0.008 0.053-0.016 0.079-0.023 0.038-0.011 0.076-0.022 0.114-0.032 0.027-0.007 0.055-0.014 0.082-0.021 0.038-0.009 0.076-0.017 0.114-0.026 0.028-0.006 0.056-0.012 0.084-0.017 0.039-0.007 0.078-0.014 0.117-0.020 0.028-0.005 0.055-0.009 0.084-0.013 0.041-0.006 0.082-0.011 0.124-0.016 0.026-0.003 0.053-0.006 0.080-0.009 0.046-0.004 0.092-0.008 0.138-0.010 0.023-0.002 0.045-0.004 0.068-0.004 0.070-0.004 0.139-0.005 0.209-0.005s0.139 0.002 0.209 0.005c0.023 0.001 0.045 0.003 0.068 0.004 0.046 0.003 0.092 0.006 0.138 0.010 0.027 0.002 0.054 0.006 0.080 0.009 0.042 0.005 0.083 0.010 0.124 0.016 0.028 0.004 0.056 0.008 0.083 0.013 0.040 0.006 0.078 0.013 0.118 0.020 0.028 0.005 0.056 0.011 0.084 0.017 0.038 0.008 0.076 0.016 0.114 0.026 0.028 0.007 0.055 0.014 0.082 0.021 0.038 0.010 0.076 0.021 0.114 0.032 0.026 0.008 0.053 0.015 0.079 0.023 0.039 0.012 0.077 0.025 0.115 0.038 0.024 0.009 0.049 0.016 0.073 0.025 0.042 0.016 0.084 0.032 0.125 0.048 0.019 0.008 0.040 0.015 0.059 0.023 0.060 0.025 0.12 0.052 0.179 0.079 0.005 0.002 0.009 0.004 0.014 0.007 0.055 0.026 0.108 0.052 0.161 0.080 0.020 0.010 0.039 0.021 0.058 0.032 0.037 0.021 0.075 0.041 0.112 0.063 0.022 0.013 0.044 0.027 0.066 0.040 0.033 0.020 0.067 0.041 0.1 0.062 0.022 0.015 0.045 0.030 0.067 0.045 0.031 0.021 0.062 0.042 0.093 0.065 0.022 0.016 0.045 0.032 0.066 0.048 0.030 0.023 0.060 0.046 0.089 0.068 0.022 0.017 0.043 0.034 0.064 0.052 0.030 0.024 0.058 0.048 0.087 0.073 0.020 0.017 0.041 0.035 0.060 0.052 0.029 0.027 0.058 0.054 0.087 0.081 0.018 0.017 0.036 0.034 0.054 0.051 0.031 0.031 0.062 0.063 0.093 0.095 0.013 0.014 0.028 0.028 0.041 0.043 0.043 0.047 0.086 0.094 0.127 0.143 0.006 0.007 0.011 0.014 0.017 0.021 0.035 0.042 0.070 0.085 0.104 0.129 0.014 0.017 0.027 0.035 0.040 0.053 0.025 0.034 0.050 0.067 0.074 0.102 0.014 0.021 0.028 0.042 0.043 0.064 0.022 0.032 0.043 0.064 0.063 0.097 0.014 0.023 0.028 0.046 0.042 0.068 0.020 0.032 0.039 0.065 0.057 0.097 0.013 0.024 0.027 0.048 0.040 0.072 0.018 0.033 0.036 0.066 0.053 0.099 0.012 0.024 0.024 0.048 0.036 0.073 0.017 0.035 0.032 0.069 0.048 0.104 0.011 0.024 0.022 0.048 0.032 0.072 0.016 0.037 0.031 0.074 0.046 0.112 0.009 0.023 0.018 0.046 0.027 0.068 0.016 0.043 0.031 0.087 0.045 0.131 0.006 0.018 0.013 0.035 0.018 0.053 0.020 0.062 0.038 0.125 0.055 0.188 0.002 0.010 0.004 0.020 0.007 0.030 0.014 0.054 0.027 0.107 0.038 0.162 0.005 0.022 0.009 0.044 0.013 0.066 0.007 0.034 0.014 0.068 0.020 0.103h12.024v-20.172c0-0.375 0.312-0.679 0.696-0.679h10.059c0.017 0 0.070 0 0.103-0.060s0.004-0.103-0.006-0.116l-2.177-3.186c-0.211-0.308-0.563-0.492-0.943-0.492h-18.168c-0.101 0-0.197 0.039-0.268 0.109l-1.151 1.123c-0.334 0.326-0.779 0.506-1.252 0.506h-11.981c-0.621 0-1.127 0.493-1.127 1.099v17.417z"></path>
</symbol>
<symbol id="icon-automatic" viewBox="0 0 32 32">
<path stroke="#101828" fill="white" stroke-linejoin="round" stroke-linecap="round" stroke-miterlimit="4" stroke-width="2.4" d="M22.667 14.667h2c0.53 0 1.039-0.211 1.414-0.586s0.586-0.884 0.586-1.414-0.211-1.039-0.586-1.414c-0.375-0.375-0.884-0.586-1.414-0.586h-2v6.667M22.667 22.667v5.333h1.333c0.707 0 1.386-0.281 1.886-0.781s0.781-1.178 0.781-1.886c0-0.707-0.281-1.385-0.781-1.886s-1.178-0.781-1.886-0.781h-1.333zM4 6.667c0 0.707 0.281 1.386 0.781 1.886s1.178 0.781 1.886 0.781c0.707 0 1.386-0.281 1.886-0.781s0.781-1.178 0.781-1.886c0-0.707-0.281-1.386-0.781-1.886s-1.178-0.781-1.886-0.781c-0.707 0-1.386 0.281-1.886 0.781s-0.781 1.178-0.781 1.886z"></path>
<path stroke-linejoin="round" stroke-linecap="round" stroke-miterlimit="4" stroke-width="2.4" d="M6.667 9.333v4c0 0.354 0.14 0.693 0.391 0.943s0.589 0.391 0.943 0.391h4M12 14.667v9.333c0 0.354 0.14 0.693 0.391 0.943s0.589 0.391 0.943 0.391h4M12 14.667h5.333"></path>
</symbol>
<symbol id="icon-bed" viewBox="0 0 32 32">
<path stroke="#101828" fill="white" stroke-linejoin="round" stroke-linecap="round" stroke-miterlimit="4" stroke-width="2.24" d="M3 26v-7c0.003-1.060 0.426-2.076 1.175-2.825s1.765-1.172 2.825-1.175h18c1.060 0.003 2.076 0.426 2.825 1.175s1.172 1.765 1.175 2.825v7M24 15h-18v-6.5c0.002-0.662 0.266-1.297 0.734-1.766s1.103-0.732 1.766-0.734h15c0.662 0.002 1.297 0.266 1.766 0.734s0.732 1.103 0.734 1.766v6.5h-2z"></path>
<path stroke-linejoin="round" stroke-linecap="round" stroke-miterlimit="4" stroke-width="2.24" d="M3 26v-0.5c0.001-0.397 0.16-0.778 0.441-1.059s0.662-0.44 1.059-0.441h23c0.397 0.001 0.778 0.16 1.059 0.441s0.44 0.662 0.441 1.059v0.5M7 15v-1c0.002-0.53 0.213-1.038 0.587-1.413s0.883-0.586 1.413-0.587h5c0.53 0.002 1.038 0.213 1.413 0.587s0.586 0.883 0.587 1.413M16 14v1M16 14c0.001-0.53 0.213-1.038 0.587-1.413s0.883-0.586 1.413-0.587h5c0.53 0.002 1.038 0.213 1.413 0.587s0.586 0.883 0.587 1.413v1"></path>
</symbol>
<symbol id="icon-cd" viewBox="0 0 32 32">
<path stroke="#101828" fill="white" stroke-linejoin="miter" stroke-linecap="butt" stroke-miterlimit="4" stroke-width="2.4" d="M16 28c6.627 0 12-5.373 12-12s-5.373-12-12-12c-6.627 0-12 5.373-12 12s5.373 12 12 12z"></path>
<path stroke-linejoin="miter" stroke-linecap="round" stroke-miterlimit="4" stroke-width="2.4" d="M8.667 16c0-4.050 3.283-7.333 7.333-7.333"></path>
<path stroke-linejoin="miter" stroke-linecap="butt" stroke-miterlimit="4" stroke-width="2.4" d="M16 19.333c1.841 0 3.333-1.492 3.333-3.333s-1.492-3.333-3.333-3.333c-1.841 0-3.333 1.492-3.333 3.333s1.492 3.333 3.333 3.333z"></path>
</symbol>
<symbol id="icon-freezer" viewBox="0 0 32 32">
<path stroke="#101828" fill="white" stroke-linejoin="round" stroke-linecap="round" stroke-miterlimit="4" stroke-width="2.0800" d="M23.4 3h-14.793c-1.105 0-2 0.895-2 2v20.387c0 1.104 0.895 2 2 2h14.793c1.104 0 2-0.896 2-2v-20.387c0-1.105-0.896-2-2-2z"></path>
<path stroke-linejoin="round" stroke-linecap="round" stroke-miterlimit="4" stroke-width="2.0800" d="M6.607 13.127h18.787M10.313 10.567v-4.040M10.313 19.44v-4.040M8.427 27.387v0.7c0 0.241 0.095 0.472 0.265 0.643s0.4 0.268 0.642 0.27h1.647c0.242 0 0.475-0.096 0.646-0.268s0.268-0.404 0.268-0.646v-0.7M20.1 27.387v0.7c0 0.242 0.096 0.474 0.268 0.646s0.404 0.268 0.646 0.268h1.653c0.242 0 0.474-0.096 0.646-0.268s0.268-0.404 0.268-0.646v-0.7"></path>
</symbol>
<symbol id="icon-fully-integrated" viewBox="0 0 44 32">
<path stroke="#101828" fill="white" d="M2.518 2.289h11.981c0.101 0 0.196-0.039 0.268-0.109l1.151-1.123c0.335-0.326 0.779-0.506 1.252-0.506h18.168c0.846 0 1.631 0.41 2.101 1.097l2.177 3.186c0.309 0.452 0.337 1.031 0.074 1.51s-0.773 0.777-1.33 0.777h-9.364v0.923h4.796c1.271 0 2.415 0.737 2.914 1.878l2.808 6.42 2.46 0.96c1.314 0.513 2.162 1.735 2.162 3.116v5.946c0 0.887-0.74 1.608-1.649 1.608h-2.862c-0.333 1.968-2.089 3.475-4.2 3.475s-3.867-1.507-4.2-3.475h-15.645c-0.333 1.968-2.090 3.475-4.2 3.475s-3.867-1.507-4.2-3.475h-5.717c-0.808 0-1.466-0.641-1.466-1.43v-21.797c0-1.355 1.129-2.457 2.518-2.457zM35.427 30.091c1.581 0 2.867-1.254 2.867-2.796s-1.286-2.796-2.867-2.796c-1.581 0-2.866 1.254-2.866 2.796s1.286 2.796 2.866 2.796zM28.998 26.616h2.228c0.006-0.034 0.013-0.067 0.020-0.101 0.004-0.023 0.008-0.046 0.013-0.068 0.011-0.053 0.024-0.106 0.037-0.159 0.003-0.011 0.005-0.022 0.008-0.033 0.017-0.063 0.035-0.126 0.055-0.188 0.006-0.018 0.012-0.036 0.018-0.054 0.014-0.043 0.029-0.087 0.045-0.13 0.009-0.023 0.018-0.046 0.027-0.068 0.014-0.038 0.029-0.075 0.045-0.112 0.010-0.024 0.021-0.048 0.032-0.072 0.016-0.035 0.031-0.070 0.048-0.104 0.012-0.024 0.024-0.048 0.037-0.073 0.017-0.033 0.034-0.067 0.052-0.099 0.013-0.024 0.026-0.048 0.040-0.072 0.018-0.033 0.038-0.065 0.057-0.097 0.014-0.023 0.028-0.046 0.042-0.068 0.021-0.033 0.042-0.065 0.064-0.097 0.014-0.021 0.028-0.042 0.043-0.063 0.024-0.034 0.049-0.068 0.075-0.102 0.013-0.018 0.026-0.036 0.039-0.053 0.035-0.045 0.070-0.087 0.105-0.13 0.005-0.006 0.010-0.013 0.016-0.020 0.041-0.049 0.084-0.097 0.127-0.143 0.013-0.015 0.027-0.028 0.041-0.042 0.031-0.032 0.061-0.064 0.093-0.096 0.018-0.017 0.036-0.034 0.054-0.051 0.028-0.027 0.057-0.054 0.087-0.081 0.019-0.017 0.039-0.035 0.060-0.052 0.029-0.025 0.058-0.049 0.087-0.074l0.064-0.050c0.029-0.023 0.059-0.046 0.090-0.069 0.022-0.016 0.044-0.033 0.066-0.048 0.031-0.022 0.062-0.043 0.093-0.065 0.022-0.015 0.045-0.030 0.067-0.044 0.033-0.022 0.067-0.042 0.1-0.063 0.022-0.013 0.043-0.027 0.066-0.040 0.037-0.022 0.075-0.042 0.112-0.063 0.019-0.011 0.038-0.022 0.057-0.032 0.054-0.028 0.108-0.055 0.163-0.082 0.004-0.002 0.008-0.004 0.013-0.006 0.059-0.028 0.119-0.054 0.179-0.079 0.020-0.008 0.039-0.015 0.059-0.023 0.041-0.016 0.083-0.033 0.125-0.048 0.024-0.009 0.048-0.016 0.072-0.025 0.038-0.013 0.077-0.026 0.116-0.038 0.026-0.008 0.052-0.016 0.079-0.023 0.038-0.011 0.076-0.022 0.114-0.032 0.027-0.007 0.054-0.014 0.082-0.021 0.038-0.009 0.076-0.017 0.114-0.026 0.028-0.006 0.056-0.012 0.084-0.017 0.039-0.007 0.078-0.014 0.118-0.020 0.028-0.005 0.055-0.009 0.083-0.013 0.041-0.006 0.082-0.011 0.124-0.016 0.026-0.003 0.053-0.006 0.080-0.009 0.046-0.004 0.092-0.008 0.138-0.010 0.023-0.002 0.045-0.004 0.068-0.004 0.070-0.004 0.139-0.005 0.209-0.005s0.139 0.002 0.209 0.005c0.023 0.001 0.045 0.003 0.068 0.004 0.046 0.003 0.092 0.006 0.138 0.010 0.027 0.002 0.053 0.006 0.080 0.009 0.042 0.005 0.083 0.010 0.124 0.016 0.028 0.004 0.056 0.008 0.084 0.013 0.039 0.006 0.078 0.013 0.117 0.020 0.028 0.005 0.056 0.011 0.084 0.017 0.038 0.008 0.076 0.016 0.114 0.026 0.028 0.007 0.055 0.014 0.082 0.021 0.038 0.010 0.076 0.021 0.114 0.032 0.027 0.008 0.053 0.015 0.079 0.023 0.039 0.012 0.077 0.025 0.116 0.038 0.024 0.009 0.048 0.016 0.072 0.025 0.042 0.016 0.084 0.032 0.125 0.048 0.019 0.008 0.039 0.015 0.059 0.023 0.060 0.025 0.12 0.052 0.179 0.079 0.005 0.002 0.008 0.004 0.013 0.006 0.055 0.026 0.109 0.053 0.163 0.082 0.019 0.010 0.038 0.021 0.057 0.032 0.038 0.021 0.076 0.041 0.112 0.063 0.022 0.013 0.044 0.027 0.066 0.040 0.033 0.021 0.067 0.041 0.1 0.063 0.022 0.015 0.044 0.030 0.067 0.044 0.032 0.022 0.063 0.043 0.094 0.065 0.022 0.016 0.044 0.032 0.066 0.048 0.030 0.023 0.060 0.046 0.090 0.069l0.063 0.050c0.029 0.024 0.058 0.049 0.087 0.074 0.020 0.017 0.040 0.035 0.060 0.052 0.029 0.027 0.058 0.054 0.087 0.081 0.018 0.017 0.036 0.034 0.054 0.051 0.032 0.031 0.062 0.064 0.093 0.096 0.014 0.014 0.028 0.028 0.041 0.042 0.043 0.047 0.086 0.094 0.127 0.143 0.006 0.006 0.010 0.013 0.016 0.020 0.036 0.043 0.071 0.086 0.105 0.13 0.013 0.017 0.026 0.035 0.039 0.053 0.026 0.034 0.051 0.067 0.075 0.102 0.014 0.021 0.028 0.042 0.043 0.063 0.022 0.033 0.043 0.065 0.064 0.097 0.014 0.023 0.028 0.046 0.042 0.068 0.020 0.032 0.039 0.065 0.057 0.097 0.013 0.024 0.027 0.048 0.039 0.072 0.018 0.033 0.036 0.066 0.052 0.099 0.013 0.024 0.025 0.048 0.037 0.073 0.017 0.035 0.032 0.069 0.048 0.104 0.011 0.024 0.022 0.048 0.032 0.072 0.016 0.037 0.031 0.074 0.045 0.112 0.009 0.023 0.018 0.046 0.027 0.068 0.016 0.043 0.031 0.086 0.045 0.13 0.006 0.018 0.013 0.036 0.018 0.054 0.019 0.062 0.038 0.124 0.054 0.188 0.003 0.011 0.006 0.022 0.008 0.033 0.013 0.053 0.026 0.105 0.037 0.159 0.005 0.023 0.009 0.046 0.013 0.068 0.007 0.034 0.014 0.067 0.019 0.101h2.861c0.142 0 0.257-0.112 0.257-0.251v-2.844h-1.085v-1.358h1.085v-1.744c0-0.822-0.505-1.55-1.287-1.855l-2.604-1.016h-9.857v9.068zM28.998 16.19h8.938l-2.508-5.735c-0.28-0.64-0.921-1.053-1.634-1.053h-4.796v6.787zM11.382 30.091c1.581 0 2.866-1.254 2.866-2.796s-1.286-2.796-2.866-2.796c-0.050 0-0.099 0.001-0.148 0.004-1.317 0.065-2.402 1.002-2.661 2.23-0.009 0.046-0.018 0.092-0.026 0.138-0.014 0.092-0.024 0.186-0.029 0.281-0.003 0.048-0.004 0.096-0.004 0.144 0 1.542 1.286 2.796 2.867 2.796zM1.391 22.163h1.085v1.358h-1.085v3.023c0 0.040 0.033 0.072 0.074 0.072h5.716c0.006-0.034 0.013-0.067 0.019-0.1 0.004-0.023 0.008-0.047 0.013-0.070 0.011-0.052 0.023-0.104 0.037-0.155 0.003-0.012 0.006-0.024 0.009-0.036 0.017-0.063 0.035-0.125 0.055-0.187 0.006-0.019 0.013-0.038 0.019-0.056 0.014-0.043 0.029-0.086 0.045-0.128 0.009-0.024 0.018-0.047 0.027-0.070 0.014-0.037 0.029-0.074 0.045-0.11 0.011-0.025 0.022-0.049 0.033-0.074 0.016-0.034 0.031-0.069 0.048-0.103 0.012-0.025 0.024-0.049 0.037-0.074 0.017-0.033 0.034-0.066 0.052-0.099 0.013-0.024 0.027-0.048 0.040-0.072 0.019-0.033 0.038-0.065 0.057-0.097 0.014-0.023 0.028-0.046 0.042-0.069 0.021-0.033 0.042-0.065 0.063-0.096 0.014-0.022 0.028-0.043 0.043-0.064 0.024-0.034 0.049-0.067 0.073-0.1 0.013-0.018 0.027-0.037 0.041-0.055 0.033-0.043 0.067-0.085 0.102-0.127 0.006-0.008 0.012-0.015 0.018-0.022 0.042-0.049 0.084-0.097 0.127-0.143 0.014-0.015 0.028-0.029 0.042-0.043 0.031-0.032 0.061-0.064 0.092-0.094 0.018-0.017 0.036-0.034 0.055-0.052 0.028-0.027 0.057-0.054 0.086-0.080 0.020-0.017 0.040-0.035 0.060-0.053 0.028-0.024 0.057-0.049 0.087-0.073 0.021-0.017 0.042-0.035 0.064-0.052 0.029-0.023 0.059-0.046 0.089-0.068 0.022-0.016 0.044-0.033 0.066-0.048 0.031-0.022 0.062-0.043 0.093-0.065 0.023-0.015 0.045-0.030 0.067-0.045 0.033-0.022 0.066-0.042 0.1-0.062 0.022-0.014 0.044-0.027 0.066-0.040 0.037-0.022 0.074-0.042 0.112-0.063 0.020-0.011 0.038-0.022 0.058-0.032 0.053-0.028 0.106-0.055 0.161-0.080 0.004-0.002 0.009-0.005 0.014-0.007 0.059-0.028 0.119-0.054 0.179-0.079 0.019-0.008 0.040-0.015 0.059-0.023 0.042-0.016 0.083-0.033 0.125-0.048 0.024-0.009 0.048-0.016 0.073-0.025 0.038-0.013 0.076-0.026 0.115-0.038 0.026-0.008 0.053-0.016 0.079-0.023 0.038-0.011 0.076-0.022 0.114-0.032 0.027-0.007 0.055-0.014 0.082-0.021 0.038-0.009 0.076-0.017 0.114-0.026 0.028-0.006 0.056-0.012 0.084-0.017 0.039-0.007 0.078-0.014 0.117-0.020 0.028-0.005 0.055-0.009 0.084-0.013 0.041-0.006 0.082-0.011 0.124-0.016 0.026-0.003 0.053-0.006 0.080-0.009 0.046-0.004 0.092-0.008 0.138-0.010 0.023-0.002 0.045-0.004 0.068-0.004 0.070-0.004 0.139-0.005 0.209-0.005s0.139 0.002 0.209 0.005c0.023 0.001 0.045 0.003 0.068 0.004 0.046 0.003 0.092 0.006 0.138 0.010 0.027 0.002 0.054 0.006 0.080 0.009 0.042 0.005 0.083 0.010 0.124 0.016 0.028 0.004 0.056 0.008 0.083 0.013 0.040 0.006 0.078 0.013 0.118 0.020 0.028 0.005 0.056 0.011 0.084 0.017 0.038 0.008 0.076 0.016 0.114 0.026 0.028 0.007 0.055 0.014 0.082 0.021 0.038 0.010 0.076 0.021 0.114 0.032 0.026 0.008 0.053 0.015 0.079 0.023 0.039 0.012 0.077 0.025 0.115 0.038 0.024 0.009 0.049 0.016 0.073 0.025 0.042 0.016 0.084 0.032 0.125 0.048 0.019 0.008 0.040 0.015 0.059 0.023 0.060 0.025 0.12 0.052 0.179 0.079 0.005 0.002 0.009 0.004 0.014 0.007 0.055 0.026 0.108 0.052 0.161 0.080 0.020 0.010 0.039 0.021 0.058 0.032 0.037 0.021 0.075 0.041 0.112 0.063 0.022 0.013 0.044 0.027 0.066 0.040 0.033 0.020 0.067 0.041 0.1 0.062 0.022 0.015 0.045 0.030 0.067 0.045 0.031 0.021 0.062 0.042 0.093 0.065 0.022 0.016 0.045 0.032 0.066 0.048 0.030 0.023 0.060 0.046 0.089 0.068 0.022 0.017 0.043 0.034 0.064 0.052 0.030 0.024 0.058 0.048 0.087 0.073 0.020 0.017 0.041 0.035 0.060 0.052 0.029 0.027 0.058 0.054 0.087 0.081 0.018 0.017 0.036 0.034 0.054 0.051 0.031 0.031 0.062 0.063 0.093 0.095 0.013 0.014 0.028 0.028 0.041 0.043 0.043 0.047 0.086 0.094 0.127 0.143 0.006 0.007 0.011 0.014 0.017 0.021 0.035 0.042 0.070 0.085 0.104 0.129 0.014 0.017 0.027 0.035 0.040 0.053 0.025 0.034 0.050 0.067 0.074 0.102 0.014 0.021 0.028 0.042 0.043 0.064 0.022 0.032 0.043 0.064 0.063 0.097 0.014 0.023 0.028 0.046 0.042 0.068 0.020 0.032 0.039 0.065 0.057 0.097 0.013 0.024 0.027 0.048 0.040 0.072 0.018 0.033 0.036 0.066 0.053 0.099 0.012 0.024 0.024 0.048 0.036 0.073 0.017 0.035 0.032 0.069 0.048 0.104 0.011 0.024 0.022 0.048 0.032 0.072 0.016 0.037 0.031 0.074 0.046 0.112 0.009 0.023 0.018 0.046 0.027 0.068 0.016 0.043 0.031 0.087 0.045 0.131 0.006 0.018 0.013 0.035 0.018 0.053 0.020 0.062 0.038 0.125 0.055 0.188 0.002 0.010 0.004 0.020 0.007 0.030 0.014 0.054 0.027 0.107 0.038 0.162 0.005 0.022 0.009 0.044 0.013 0.066 0.007 0.034 0.014 0.068 0.020 0.103h12.024v-20.172c0-0.375 0.312-0.679 0.696-0.679h10.059c0.017 0 0.070 0 0.103-0.060s0.004-0.103-0.006-0.116l-2.177-3.186c-0.211-0.308-0.563-0.492-0.943-0.492h-18.168c-0.101 0-0.197 0.039-0.268 0.109l-1.151 1.123c-0.334 0.326-0.779 0.506-1.252 0.506h-11.981c-0.621 0-1.127 0.493-1.127 1.099v17.417z"></path>
</symbol>
<symbol id="icon-gas" viewBox="0 0 26 32">
<path stroke="#101828" fill="white" d="M23.849 14.578c-0.433-0.533-0.96-0.996-1.449-1.458-1.261-1.067-2.691-1.831-3.896-2.951-2.804-2.596-3.425-6.88-1.637-10.169-1.788 0.409-3.35 1.333-4.686 2.347-4.874 3.698-6.794 10.223-4.498 15.823 0.075 0.178 0.151 0.356 0.151 0.587 0 0.391-0.282 0.747-0.659 0.889-0.433 0.178-0.885 0.071-1.242-0.213-0.107-0.084-0.197-0.187-0.263-0.302-2.127-2.542-2.465-6.187-1.035-9.102-3.143 2.418-4.856 6.507-4.611 10.365 0.113 0.889 0.226 1.778 0.546 2.667 0.263 1.067 0.772 2.133 1.336 3.076 2.033 3.076 5.552 5.28 9.335 5.725 4.027 0.48 8.337-0.213 11.424-2.844 3.444-2.951 4.648-7.68 2.879-11.734l-0.245-0.462c-0.395-0.818-1.449-2.24-1.449-2.24zM17.902 25.778c-0.527 0.427-1.393 0.889-2.070 1.067-2.108 0.711-4.216-0.284-5.458-1.458 2.24-0.498 3.576-2.062 3.971-3.645 0.32-1.422-0.282-2.596-0.527-3.965-0.226-1.316-0.188-2.436 0.32-3.662 0.358 0.676 0.734 1.351 1.186 1.885 1.449 1.778 3.726 2.56 4.216 4.978 0.075 0.249 0.113 0.498 0.113 0.764 0.056 1.458-0.621 3.058-1.75 4.036z"></path>
</symbol>
<symbol id="icon-heart" viewBox="0 0 35 32">
<path stroke="#101828" fill="white" stroke-linejoin="round" stroke-linecap="round" stroke-miterlimit="4" stroke-width="3.3455" d="M30.313 5.251c-0.743-0.743-1.625-1.333-2.596-1.735s-2.011-0.609-3.062-0.609-2.091 0.207-3.062 0.609c-0.971 0.402-1.853 0.992-2.596 1.735l-1.542 1.542-1.542-1.542c-1.501-1.501-3.536-2.344-5.658-2.344s-4.158 0.843-5.658 2.344c-1.501 1.501-2.344 3.536-2.344 5.658s0.843 4.158 2.344 5.658l12.858 12.858 12.858-12.858c0.743-0.743 1.333-1.625 1.735-2.596s0.609-2.011 0.609-3.062-0.207-2.091-0.609-3.062c-0.402-0.971-0.992-1.853-1.735-2.596z"></path>
</symbol>
<symbol id="icon-heart-fill" viewBox="0 0 35 32">
<path fill="#e44848" style="fill: var(--color1, #e44848); stroke: var(--color1, #e44848)" stroke="#e44848" stroke-linejoin="round" stroke-linecap="round" stroke-miterlimit="4" stroke-width="3.3455" d="M30.313 5.251c-0.743-0.743-1.625-1.333-2.596-1.735s-2.011-0.609-3.062-0.609-2.091 0.207-3.062 0.609c-0.971 0.402-1.853 0.992-2.596 1.735l-1.542 1.542-1.542-1.542c-1.501-1.501-3.536-2.344-5.658-2.344s-4.158 0.843-5.658 2.344c-1.501 1.501-2.344 3.536-2.344 5.658s0.843 4.158 2.344 5.658l12.858 12.858 12.858-12.858c0.743-0.743 1.333-1.625 1.735-2.596s0.609-2.011 0.609-3.062-0.207-2.091-0.609-3.062c-0.402-0.971-0.992-1.853-1.735-2.596z"></path>
</symbol>
<symbol id="icon-hob" viewBox="0 0 32 32">
<path fill="none" stroke="#101828" style="stroke: var(--color2, #101828)" stroke-linejoin="miter" stroke-linecap="butt" stroke-miterlimit="4" stroke-width="2.4" d="M12 6.667h16c0.354 0 0.693 0.14 0.943 0.391s0.391 0.589 0.391 0.943v17.333c0 0.354-0.14 0.693-0.391 0.943s-0.589 0.391-0.943 0.391h-16M12 6.667h-8c-0.354 0-0.693 0.14-0.943 0.391s-0.39 0.589-0.39 0.943v17.333c0 0.354 0.14 0.693 0.39 0.943s0.589 0.391 0.943 0.391h8M12 6.667v20"></path>
<path fill="none" stroke="#101828" style="stroke: var(--color2, #101828)" stroke-linejoin="round" stroke-linecap="round" stroke-miterlimit="4" stroke-width="2.4" d="M7.333 11.333v2.667M24.667 10.667l-8 11.333"></path>
<path d="M8.667 18c0-0.736-0.597-1.333-1.333-1.333s-1.333 0.597-1.333 1.333c0 0.736 0.597 1.333 1.333 1.333s1.333-0.597 1.333-1.333z"></path>
<path d="M8.667 22c0-0.736-0.597-1.333-1.333-1.333s-1.333 0.597-1.333 1.333c0 0.736 0.597 1.333 1.333 1.333s1.333-0.597 1.333-1.333z"></path>
</symbol>
<symbol id="icon-kitchen" viewBox="0 0 32 32">
<path stroke="#101828" fill="white" stroke-linejoin="round" stroke-linecap="round" stroke-miterlimit="4" stroke-width="2.4" d="M25.333 20v-16c-6.421 6.125-6.697 11.092-6.667 16h6.667zM25.333 20v8h-1.333v-4M10.667 5.333v22.667M6.667 5.333v4c0 1.061 0.421 2.078 1.172 2.828s1.768 1.172 2.828 1.172c1.061 0 2.078-0.421 2.828-1.172s1.172-1.768 1.172-2.828v-4"></path>
</symbol>
<symbol id="icon-microwave" viewBox="0 0 32 32">
<path stroke="#101828" fill="white" stroke-linejoin="round" stroke-linecap="round" stroke-miterlimit="4" stroke-width="2.24" d="M29.714 5.714h-27.429c-0.303 0-0.594 0.12-0.808 0.335s-0.335 0.505-0.335 0.808v18.286c0 0.303 0.12 0.594 0.335 0.808s0.505 0.335 0.808 0.335h27.429c0.303 0 0.594-0.12 0.808-0.335s0.335-0.505 0.335-0.808v-18.286c0-0.303-0.12-0.594-0.335-0.808s-0.505-0.335-0.808-0.335z"></path>
<path stroke-linejoin="round" stroke-linecap="round" stroke-miterlimit="4" stroke-width="2.24" d="M25.143 11.428h1.143M25.143 16h1.143M19.428 10.286h-12.571c-0.303 0-0.594 0.12-0.808 0.335s-0.335 0.505-0.335 0.808v9.143c0 0.303 0.12 0.594 0.335 0.808s0.505 0.335 0.808 0.335h12.571c0.303 0 0.594-0.12 0.808-0.335s0.335-0.505 0.335-0.808v-9.143c0-0.303-0.12-0.594-0.335-0.808s-0.505-0.335-0.808-0.335z"></path>
</symbol>
<symbol id="icon-petrol" viewBox="0 0 32 32">
<path  d="M26.36 9.64l0.013-0.013-4.96-4.96-1.413 1.413 2.813 2.813c-1.253 0.48-2.147 1.68-2.147 3.107 0 0.438 0.086 0.871 0.254 1.276s0.413 0.772 0.723 1.081c0.625 0.625 1.473 0.976 2.357 0.976 0.48 0 0.92-0.107 1.333-0.28v9.613c0 0.354-0.14 0.693-0.391 0.943s-0.589 0.391-0.943 0.391c-0.354 0-0.693-0.14-0.943-0.391s-0.391-0.589-0.391-0.943v-6c0-0.707-0.281-1.386-0.781-1.886s-1.178-0.781-1.886-0.781h-1.333v-9.333c0-0.707-0.281-1.386-0.781-1.886s-1.178-0.781-1.886-0.781h-8c-0.707 0-1.386 0.281-1.886 0.781s-0.781 1.178-0.781 1.886v21.333h13.333v-10h2v6.667c0 0.884 0.351 1.732 0.976 2.357s1.473 0.976 2.357 0.976c0.438 0 0.871-0.086 1.276-0.254s0.772-0.413 1.081-0.723c0.309-0.309 0.555-0.677 0.723-1.081s0.254-0.838 0.254-1.276v-12.667c0-0.92-0.373-1.76-0.973-2.36zM16 18v7.333h-8v-9.333h8v2zM16 13.333h-8v-6.667h8v6.667zM24 13.333c-0.354 0-0.693-0.14-0.943-0.39s-0.391-0.589-0.391-0.943c0-0.354 0.14-0.693 0.391-0.943s0.589-0.39 0.943-0.39c0.354 0 0.693 0.14 0.943 0.39s0.391 0.589 0.391 0.943c0 0.354-0.14 0.693-0.391 0.943s-0.589 0.39-0.943 0.39z"></path>
</symbol>
<symbol id="icon-radio" viewBox="0 0 32 32">
<path stroke="#101828" fill="white" stroke-linejoin="miter" stroke-linecap="butt" stroke-miterlimit="4" stroke-width="2.0800" d="M2.667 18.667c0-5.028 0-7.543 1.563-9.104 1.561-1.563 4.076-1.563 9.104-1.563h5.333c5.028 0 7.543 0 9.104 1.563 1.563 1.561 1.563 4.076 1.563 9.104s0 7.543-1.563 9.104c-1.561 1.563-4.076 1.563-9.104 1.563h-5.333c-5.028 0-7.543 0-9.104-1.563-1.563-1.561-1.563-4.076-1.563-9.104z"></path>
<path stroke-linejoin="miter" stroke-linecap="butt" stroke-miterlimit="4" stroke-width="2.0800" d="M6.667 14.667c0-0.707 0.281-1.386 0.781-1.886s1.178-0.781 1.886-0.781h13.333c0.707 0 1.386 0.281 1.886 0.781s0.781 1.178 0.781 1.886-0.281 1.386-0.781 1.886c-0.5 0.5-1.178 0.781-1.886 0.781h-13.333c-0.707 0-1.386-0.281-1.886-0.781s-0.781-1.178-0.781-1.886zM12 22.667c0 0.53-0.211 1.039-0.586 1.414s-0.884 0.586-1.414 0.586-1.039-0.211-1.414-0.586c-0.375-0.375-0.586-0.884-0.586-1.414s0.211-1.039 0.586-1.414 0.884-0.586 1.414-0.586c0.53 0 1.039 0.211 1.414 0.586s0.586 0.884 0.586 1.414z"></path>
<path stroke-linejoin="miter" stroke-linecap="round" stroke-miterlimit="4" stroke-width="2.0800" d="M20 15.333v2M17.333 22.667h6.667M8.667 8l11.333-5.333"></path>
</symbol>
<symbol id="icon-shower" viewBox="0 0 32 32">
<path stroke="#101828" fill="white" stroke-linejoin="round" stroke-linecap="round" stroke-miterlimit="4" stroke-width="2.56" d="M5.333 5.333l3.333 3.333M18 8.667c-1.242-1.217-2.914-1.895-4.653-1.886s-3.404 0.703-4.634 1.933c-1.23 1.23-1.924 2.895-1.933 4.634s0.669 3.411 1.886 4.653M20 6.667l-13.333 13.333M18.667 22.667v0.013M13.333 21.333v0.013M17.333 17.333v0.013M21.333 13.333v0.013M14.667 26.667v0.013M22.667 18.667v0.013M26.667 14.667v0.013"></path>
</symbol>
<symbol id="icon-toilet" viewBox="0 0 32 32">
<path stroke="#101828" fill="white" d="M24 4c1.939 0 3.269 1.647 4.040 3.313 0.761 1.653 1.224 3.811 1.287 6.145l0.007 0.541v12.667c0 0.18-0.036 0.357-0.106 0.523s-0.173 0.315-0.303 0.439c-0.13 0.125-0.283 0.222-0.451 0.285s-0.347 0.093-0.527 0.086l-0.165-0.019-3.781-0.629-3.781 0.629c-0.16 0.027-0.324 0.024-0.483-0.008l-0.157-0.041-3.579-1.193-3.579 1.193c-0.188 0.063-0.387 0.083-0.583 0.059s-0.385-0.092-0.552-0.197-0.309-0.248-0.414-0.415c-0.105-0.167-0.172-0.356-0.196-0.553l-0.009-0.159v-3.903c-0.708 0.733-1.595 1.236-2.667 1.236-1.939 0-3.269-1.647-4.040-3.313-0.819-1.78-1.293-4.145-1.293-6.687s0.473-4.907 1.293-6.687c0.735-1.592 1.981-3.164 3.78-3.303l0.26-0.011h16zM24 6.667h-12.291c0.12 0.213 0.229 0.429 0.329 0.647 0.821 1.78 1.295 4.145 1.295 6.687v10.817l2.245-0.749c0.274-0.091 0.569-0.091 0.843 0l3.687 1.229 3.673-0.613c0.144-0.024 0.293-0.024 0.437 0l2.448 0.409v-11.093c0-2.245-0.423-4.213-1.049-5.569-0.677-1.471-1.347-1.764-1.617-1.764zM8 6.667c-0.271 0-0.94 0.293-1.617 1.764-0.627 1.356-1.049 3.324-1.049 5.569s0.423 4.213 1.049 5.569c0.677 1.471 1.347 1.764 1.617 1.764s0.94-0.293 1.617-1.764c0.627-1.356 1.049-3.324 1.049-5.569s-0.423-4.213-1.049-5.569c-0.677-1.471-1.347-1.764-1.617-1.764zM8 11.333c0.736 0 1.333 1.193 1.333 2.667s-0.597 2.667-1.333 2.667c-0.736 0-1.333-1.193-1.333-2.667s0.597-2.667 1.333-2.667z"></path>
</symbol>
<symbol id="icon-van" viewBox="0 0 46 32">
<path stroke="#101828" fill="white" d="M2.608 1.8h12.409c0.105 0 0.203-0.040 0.278-0.112l1.192-1.163c0.346-0.338 0.807-0.524 1.297-0.524h18.817c0.876 0 1.69 0.425 2.176 1.136l2.255 3.3c0.32 0.468 0.349 1.067 0.077 1.564s-0.8 0.805-1.377 0.805h-9.698v0.956h4.967c1.317 0 2.501 0.763 3.018 1.945l2.908 6.65 2.548 0.994c1.36 0.531 2.24 1.797 2.24 3.227v6.158c0 0.918-0.766 1.666-1.708 1.666h-2.964c-0.345 2.039-2.164 3.599-4.35 3.599s-4.005-1.561-4.35-3.599h-16.203c-0.345 2.039-2.164 3.599-4.35 3.599s-4.005-1.561-4.35-3.599h-5.921c-0.837 0-1.518-0.664-1.518-1.481v-22.576c0-1.403 1.17-2.544 2.608-2.544zM36.692 30.594c1.637 0 2.969-1.299 2.969-2.896s-1.332-2.896-2.969-2.896c-1.637 0-2.969 1.299-2.969 2.896s1.332 2.896 2.969 2.896zM30.034 26.995h2.307c0.006-0.035 0.013-0.070 0.020-0.105 0.005-0.024 0.009-0.047 0.014-0.071 0.012-0.055 0.025-0.11 0.039-0.164 0.003-0.011 0.005-0.023 0.009-0.034 0.017-0.066 0.036-0.13 0.057-0.195 0.006-0.019 0.013-0.037 0.019-0.056 0.015-0.045 0.031-0.090 0.047-0.134 0.009-0.024 0.018-0.047 0.028-0.071 0.015-0.039 0.030-0.078 0.047-0.116 0.010-0.025 0.022-0.050 0.033-0.075 0.016-0.037 0.032-0.072 0.050-0.108 0.013-0.025 0.025-0.050 0.038-0.075 0.017-0.034 0.036-0.069 0.054-0.103 0.013-0.025 0.027-0.049 0.041-0.074 0.019-0.034 0.039-0.067 0.059-0.101 0.014-0.024 0.029-0.047 0.043-0.071 0.022-0.034 0.044-0.067 0.066-0.101 0.015-0.022 0.029-0.044 0.044-0.065 0.025-0.035 0.051-0.070 0.077-0.105 0.013-0.018 0.026-0.037 0.040-0.055 0.036-0.046 0.072-0.090 0.109-0.135 0.005-0.007 0.010-0.014 0.016-0.020 0.043-0.051 0.087-0.1 0.132-0.148 0.014-0.015 0.028-0.029 0.043-0.044 0.032-0.033 0.063-0.066 0.096-0.099 0.018-0.018 0.038-0.035 0.056-0.053 0.029-0.028 0.059-0.056 0.090-0.084 0.020-0.018 0.041-0.036 0.062-0.054 0.030-0.026 0.060-0.051 0.090-0.077l0.066-0.052c0.031-0.024 0.062-0.048 0.093-0.071 0.022-0.017 0.045-0.034 0.069-0.050 0.032-0.023 0.064-0.045 0.097-0.068 0.023-0.015 0.046-0.031 0.069-0.046 0.034-0.023 0.069-0.044 0.104-0.065 0.022-0.014 0.045-0.028 0.068-0.041 0.038-0.023 0.077-0.044 0.116-0.065 0.020-0.011 0.040-0.023 0.059-0.033 0.056-0.029 0.112-0.057 0.168-0.084 0.005-0.002 0.009-0.004 0.013-0.006 0.061-0.029 0.123-0.056 0.186-0.082 0.020-0.008 0.041-0.016 0.061-0.024 0.043-0.017 0.086-0.034 0.13-0.050 0.025-0.009 0.050-0.017 0.075-0.026 0.040-0.014 0.080-0.027 0.12-0.039 0.027-0.008 0.054-0.016 0.082-0.024 0.039-0.011 0.078-0.023 0.118-0.033 0.028-0.007 0.056-0.015 0.085-0.021 0.039-0.009 0.078-0.018 0.118-0.026 0.029-0.006 0.058-0.012 0.087-0.018 0.040-0.007 0.081-0.015 0.122-0.021 0.029-0.005 0.057-0.010 0.086-0.014 0.042-0.006 0.085-0.011 0.128-0.016 0.027-0.003 0.055-0.007 0.082-0.009 0.047-0.004 0.095-0.008 0.143-0.011 0.024-0.002 0.047-0.004 0.070-0.005 0.072-0.004 0.144-0.006 0.216-0.006s0.144 0.002 0.216 0.006c0.024 0.001 0.047 0.003 0.070 0.005 0.048 0.003 0.096 0.006 0.143 0.011 0.028 0.002 0.055 0.006 0.082 0.009 0.043 0.005 0.086 0.010 0.128 0.016 0.029 0.004 0.058 0.008 0.087 0.014 0.041 0.006 0.081 0.014 0.122 0.021 0.029 0.006 0.058 0.012 0.087 0.018 0.040 0.008 0.079 0.017 0.118 0.026 0.029 0.007 0.057 0.014 0.085 0.021 0.039 0.010 0.078 0.021 0.118 0.033 0.028 0.008 0.055 0.016 0.082 0.024 0.040 0.012 0.080 0.026 0.12 0.039 0.025 0.009 0.050 0.017 0.075 0.026 0.044 0.016 0.087 0.033 0.13 0.050 0.020 0.008 0.041 0.016 0.061 0.024 0.062 0.026 0.125 0.053 0.186 0.082 0.005 0.002 0.009 0.005 0.013 0.006 0.057 0.027 0.112 0.055 0.168 0.084 0.020 0.011 0.039 0.022 0.059 0.033 0.039 0.021 0.078 0.043 0.116 0.065 0.023 0.014 0.045 0.028 0.068 0.041 0.035 0.021 0.070 0.043 0.104 0.065 0.023 0.015 0.046 0.031 0.069 0.046 0.033 0.023 0.065 0.044 0.097 0.068 0.023 0.016 0.046 0.033 0.069 0.050 0.031 0.024 0.062 0.047 0.093 0.071l0.066 0.052c0.031 0.025 0.061 0.051 0.090 0.077 0.021 0.018 0.041 0.036 0.062 0.054 0.031 0.028 0.060 0.056 0.090 0.084 0.018 0.017 0.037 0.035 0.056 0.053 0.033 0.033 0.065 0.066 0.096 0.099 0.014 0.015 0.029 0.029 0.043 0.044 0.045 0.048 0.089 0.098 0.132 0.148 0.006 0.007 0.011 0.014 0.016 0.020 0.037 0.044 0.073 0.089 0.109 0.135 0.014 0.018 0.027 0.037 0.040 0.055 0.026 0.035 0.052 0.070 0.077 0.105 0.015 0.021 0.029 0.043 0.044 0.065 0.022 0.034 0.044 0.067 0.066 0.101 0.014 0.024 0.029 0.047 0.043 0.071 0.020 0.033 0.040 0.067 0.059 0.101 0.014 0.025 0.028 0.049 0.041 0.074 0.018 0.034 0.037 0.069 0.054 0.103 0.013 0.025 0.025 0.050 0.038 0.075 0.017 0.036 0.033 0.071 0.050 0.108 0.011 0.025 0.023 0.049 0.033 0.075 0.017 0.038 0.032 0.077 0.047 0.116 0.010 0.024 0.019 0.047 0.028 0.071 0.016 0.044 0.032 0.089 0.047 0.134 0.006 0.019 0.013 0.038 0.019 0.056 0.020 0.064 0.039 0.129 0.056 0.195 0.003 0.011 0.006 0.023 0.009 0.034 0.014 0.055 0.027 0.109 0.039 0.164 0.005 0.024 0.009 0.047 0.014 0.071 0.007 0.035 0.014 0.069 0.020 0.105h2.963c0.147 0 0.266-0.116 0.266-0.26v-2.946h-1.124v-1.406h1.124v-1.806c0-0.851-0.523-1.606-1.333-1.922l-2.697-1.052h-10.209v9.392zM30.034 16.197h9.257l-2.598-5.939c-0.29-0.662-0.954-1.090-1.692-1.090h-4.967v7.030zM11.789 30.594c1.637 0 2.969-1.299 2.969-2.896s-1.332-2.896-2.969-2.896c-0.051 0-0.102 0.001-0.153 0.004-1.364 0.067-2.488 1.038-2.756 2.309-0.010 0.047-0.019 0.095-0.027 0.143-0.015 0.096-0.025 0.193-0.030 0.291-0.003 0.049-0.004 0.099-0.004 0.149 0 1.597 1.332 2.896 2.969 2.896zM1.441 22.383h1.124v1.406h-1.124v3.131c0 0.041 0.035 0.075 0.077 0.075h5.92c0.006-0.035 0.013-0.069 0.020-0.104 0.005-0.024 0.009-0.048 0.014-0.072 0.012-0.054 0.024-0.107 0.038-0.16 0.003-0.012 0.006-0.025 0.009-0.038 0.017-0.065 0.036-0.129 0.056-0.193 0.006-0.020 0.013-0.039 0.020-0.058 0.015-0.044 0.030-0.089 0.046-0.132 0.009-0.025 0.019-0.048 0.028-0.072 0.015-0.038 0.031-0.077 0.046-0.114 0.011-0.026 0.022-0.051 0.034-0.076 0.016-0.036 0.032-0.071 0.050-0.106 0.012-0.026 0.025-0.051 0.038-0.076 0.017-0.034 0.035-0.068 0.054-0.102 0.014-0.025 0.028-0.049 0.042-0.074 0.020-0.034 0.039-0.067 0.059-0.1 0.014-0.024 0.029-0.048 0.044-0.071 0.021-0.034 0.043-0.067 0.066-0.1 0.014-0.023 0.029-0.045 0.044-0.066 0.025-0.035 0.051-0.070 0.076-0.104 0.014-0.019 0.028-0.038 0.042-0.057 0.035-0.044 0.070-0.088 0.106-0.132 0.006-0.008 0.012-0.016 0.018-0.023 0.043-0.051 0.087-0.1 0.132-0.148 0.014-0.015 0.029-0.030 0.043-0.045 0.032-0.033 0.063-0.066 0.096-0.098 0.018-0.018 0.037-0.035 0.056-0.053 0.029-0.028 0.059-0.056 0.089-0.083 0.020-0.018 0.041-0.036 0.062-0.055 0.029-0.025 0.059-0.051 0.090-0.075 0.022-0.018 0.044-0.036 0.066-0.053 0.030-0.024 0.061-0.047 0.092-0.071 0.022-0.017 0.046-0.034 0.069-0.050 0.032-0.023 0.064-0.045 0.096-0.067 0.024-0.016 0.047-0.031 0.070-0.047 0.034-0.023 0.069-0.044 0.103-0.065 0.023-0.014 0.046-0.028 0.069-0.042 0.038-0.023 0.077-0.044 0.116-0.065 0.020-0.011 0.040-0.023 0.061-0.033 0.055-0.029 0.11-0.057 0.167-0.083 0.005-0.002 0.009-0.005 0.014-0.007 0.061-0.029 0.123-0.056 0.186-0.082 0.020-0.008 0.041-0.016 0.061-0.024 0.043-0.017 0.086-0.034 0.13-0.050 0.025-0.009 0.050-0.017 0.076-0.026 0.039-0.014 0.079-0.027 0.119-0.039 0.027-0.008 0.055-0.016 0.082-0.024 0.039-0.011 0.078-0.023 0.118-0.033 0.028-0.007 0.056-0.015 0.085-0.021 0.039-0.009 0.078-0.018 0.118-0.026 0.029-0.006 0.058-0.012 0.087-0.018 0.040-0.007 0.081-0.015 0.122-0.021 0.029-0.005 0.057-0.010 0.086-0.014 0.042-0.006 0.085-0.011 0.128-0.016 0.027-0.003 0.055-0.007 0.082-0.009 0.047-0.004 0.095-0.008 0.143-0.011 0.024-0.002 0.047-0.004 0.070-0.005 0.072-0.004 0.144-0.006 0.216-0.006s0.144 0.002 0.216 0.006c0.024 0.001 0.047 0.003 0.070 0.005 0.048 0.003 0.096 0.006 0.143 0.011 0.028 0.002 0.055 0.006 0.082 0.009 0.043 0.005 0.086 0.010 0.128 0.016 0.029 0.004 0.058 0.008 0.086 0.014 0.041 0.006 0.081 0.014 0.122 0.021 0.029 0.006 0.058 0.012 0.087 0.018 0.040 0.008 0.079 0.017 0.118 0.026 0.029 0.007 0.057 0.014 0.085 0.021 0.039 0.010 0.078 0.021 0.118 0.033 0.027 0.008 0.055 0.016 0.082 0.024 0.040 0.012 0.080 0.026 0.119 0.039 0.025 0.009 0.051 0.017 0.076 0.026 0.044 0.016 0.086 0.033 0.13 0.050 0.020 0.008 0.041 0.016 0.061 0.024 0.062 0.026 0.124 0.053 0.186 0.082 0.005 0.002 0.010 0.005 0.014 0.007 0.056 0.026 0.112 0.054 0.167 0.083 0.021 0.011 0.040 0.022 0.060 0.033 0.039 0.021 0.078 0.043 0.116 0.065 0.023 0.014 0.046 0.028 0.069 0.042 0.035 0.021 0.069 0.042 0.103 0.065 0.023 0.015 0.046 0.031 0.070 0.047 0.032 0.022 0.065 0.044 0.096 0.067 0.023 0.016 0.046 0.033 0.069 0.050 0.031 0.024 0.062 0.047 0.092 0.071 0.023 0.017 0.044 0.035 0.066 0.053 0.031 0.025 0.061 0.050 0.090 0.076 0.021 0.018 0.042 0.036 0.062 0.054 0.030 0.028 0.060 0.056 0.090 0.084 0.018 0.017 0.037 0.035 0.056 0.053 0.032 0.032 0.065 0.065 0.096 0.098 0.014 0.015 0.029 0.029 0.043 0.044 0.045 0.048 0.089 0.098 0.132 0.148 0.006 0.007 0.012 0.015 0.017 0.021 0.036 0.044 0.073 0.088 0.107 0.134 0.014 0.018 0.028 0.037 0.042 0.055 0.026 0.035 0.052 0.070 0.077 0.105 0.015 0.021 0.029 0.044 0.044 0.066 0.023 0.033 0.044 0.066 0.066 0.1 0.015 0.024 0.029 0.047 0.044 0.071 0.020 0.033 0.040 0.067 0.059 0.101 0.014 0.025 0.028 0.049 0.041 0.074 0.019 0.034 0.037 0.069 0.055 0.103 0.013 0.025 0.025 0.050 0.037 0.075 0.017 0.036 0.034 0.072 0.050 0.108 0.012 0.025 0.023 0.049 0.033 0.075 0.017 0.038 0.032 0.077 0.047 0.116 0.009 0.024 0.018 0.047 0.028 0.071 0.017 0.045 0.032 0.090 0.047 0.135 0.006 0.019 0.013 0.037 0.019 0.055 0.020 0.064 0.039 0.129 0.057 0.195 0.002 0.010 0.005 0.021 0.007 0.031 0.014 0.056 0.028 0.111 0.040 0.168 0.005 0.023 0.009 0.046 0.013 0.069 0.007 0.035 0.014 0.070 0.021 0.106h12.453v-20.893c0-0.388 0.323-0.703 0.721-0.703h10.419c0.018 0 0.073 0 0.107-0.062s0.004-0.106-0.006-0.12l-2.255-3.3c-0.218-0.319-0.583-0.51-0.977-0.51h-18.817c-0.105 0-0.204 0.040-0.278 0.112l-1.192 1.163c-0.346 0.338-0.807 0.524-1.297 0.524h-12.409c-0.643 0-1.167 0.511-1.167 1.138v18.039z"></path>
</symbol>
<symbol id="icon-water" viewBox="0 0 32 32">
<path stroke="#101828" fill="white" stroke-linejoin="miter" stroke-linecap="butt" stroke-miterlimit="10" stroke-width="2.4" d="M25 20c0 5.523-3.477 9-9 9s-9-3.477-9-9c0-5.927 6.452-13.928 8.431-16.242 0.070-0.082 0.158-0.148 0.256-0.194s0.205-0.069 0.314-0.069c0.108 0 0.215 0.023 0.314 0.069s0.186 0.111 0.256 0.194c1.978 2.314 8.43 10.316 8.43 16.242z"></path>
<path stroke-linejoin="round" stroke-linecap="round" stroke-miterlimit="4" stroke-width="2.4" d="M21.5 20.5c0 1.193-0.474 2.338-1.318 3.182s-1.988 1.318-3.182 1.318"></path>
</symbol>
<symbol id="icon-map-pin" viewBox="0 0 32 32">
<path stroke="#101828" fill="white" stroke-linejoin="round" stroke-linecap="round" stroke-miterlimit="4" stroke-width="2.6" d="M28 13.333c0 9.333-12 17.333-12 17.333s-12-8-12-17.333c0-3.183 1.264-6.235 3.515-8.485s5.303-3.515 8.485-3.515c3.183 0 6.235 1.264 8.485 3.515s3.515 5.303 3.515 8.485z"></path>
<path stroke-linejoin="round" stroke-linecap="round" stroke-miterlimit="4" stroke-width="2.6" d="M16 17.333c2.209 0 4-1.791 4-4s-1.791-4-4-4c-2.209 0-4 1.791-4 4s1.791 4 4 4z"></path>
</symbol>
<symbol id="icon-Rating" viewBox="0 0 34 32">
<path fill="#ffc531" style="fill: var(--color3, #ffc531); stroke: var(--color3, #ffc531)" stroke="#ffc531" stroke-linejoin="miter" stroke-linecap="butt" stroke-miterlimit="4" stroke-width="2.56" d="M13.227 10.020l3.84-7.277 3.84 7.277c0.34 0.644 0.959 1.093 1.675 1.217l8.108 1.403-5.735 5.9c-0.507 0.522-0.744 1.249-0.64 1.97l1.171 8.144-7.384-3.631c-0.653-0.321-1.418-0.321-2.071 0l-7.384 3.631 1.171-8.144c0.104-0.72-0.133-1.448-0.64-1.97l-5.735-5.9 8.108-1.403c0.717-0.124 1.336-0.574 1.675-1.217z"></path>
</symbol>
<symbol id="icon-Rating-1" viewBox="0 0 34 32">
<path fill="#ffc531" style="fill: var(--color3, #ffc531); stroke: var(--color3, #ffc531)" stroke="#ffc531" stroke-linejoin="miter" stroke-linecap="butt" stroke-miterlimit="4" stroke-width="2.56" d="M13.227 10.020l3.84-7.277 3.84 7.277c0.34 0.644 0.959 1.093 1.675 1.217l8.108 1.403-5.735 5.9c-0.507 0.522-0.744 1.249-0.64 1.97l1.171 8.144-7.384-3.631c-0.653-0.321-1.418-0.321-2.071 0l-7.384 3.631 1.171-8.144c0.104-0.72-0.133-1.448-0.64-1.97l-5.735-5.9 8.108-1.403c0.717-0.124 1.336-0.574 1.675-1.217z"></path>
</symbol>
<symbol id="icon-Rating-2" viewBox="0 0 34 32">
<path fill="#ffc531" style="fill: var(--color3, #ffc531); stroke: var(--color3, #ffc531)" stroke="#ffc531" stroke-linejoin="miter" stroke-linecap="butt" stroke-miterlimit="4" stroke-width="2.56" d="M13.227 10.020l3.84-7.277 3.84 7.277c0.34 0.644 0.959 1.093 1.675 1.217l8.108 1.403-5.735 5.9c-0.507 0.522-0.744 1.249-0.64 1.97l1.171 8.144-7.384-3.631c-0.653-0.321-1.418-0.321-2.071 0l-7.384 3.631 1.171-8.144c0.104-0.72-0.133-1.448-0.64-1.97l-5.735-5.9 8.108-1.403c0.717-0.124 1.336-0.574 1.675-1.217z"></path>
</symbol>
<symbol id="icon-Rating-3" viewBox="0 0 34 32">
<path fill="#ffc531" style="fill: var(--color3, #ffc531); stroke: var(--color3, #ffc531)" stroke="#ffc531" stroke-linejoin="miter" stroke-linecap="butt" stroke-miterlimit="4" stroke-width="2.56" d="M13.227 10.020l3.84-7.277 3.84 7.277c0.34 0.644 0.959 1.093 1.675 1.217l8.108 1.403-5.735 5.9c-0.507 0.522-0.744 1.249-0.64 1.97l1.171 8.144-7.384-3.631c-0.653-0.321-1.418-0.321-2.071 0l-7.384 3.631 1.171-8.144c0.104-0.72-0.133-1.448-0.64-1.97l-5.735-5.9 8.108-1.403c0.717-0.124 1.336-0.574 1.675-1.217z"></path>
</symbol>
<symbol id="icon-Rating-4" viewBox="0 0 34 32">
<path fill="#ffc531" style="fill: var(--color3, #ffc531); stroke: var(--color3, #ffc531)" stroke="#ffc531" stroke-linejoin="miter" stroke-linecap="butt" stroke-miterlimit="4" stroke-width="2.56" d="M13.227 10.020l3.84-7.277 3.84 7.277c0.34 0.644 0.959 1.093 1.675 1.217l8.108 1.403-5.735 5.9c-0.507 0.522-0.744 1.249-0.64 1.97l1.171 8.144-7.384-3.631c-0.653-0.321-1.418-0.321-2.071 0l-7.384 3.631 1.171-8.144c0.104-0.72-0.133-1.448-0.64-1.97l-5.735-5.9 8.108-1.403c0.717-0.124 1.336-0.574 1.675-1.217z"></path>
</symbol>
<symbol id="icon-Rating-5" viewBox="0 0 34 32">
<path fill="#ffc531" style="fill: var(--color3, #ffc531); stroke: var(--color3, #ffc531)" stroke="#ffc531" stroke-linejoin="miter" stroke-linecap="butt" stroke-miterlimit="4" stroke-width="2.56" d="M13.227 10.020l3.84-7.277 3.84 7.277c0.34 0.644 0.959 1.093 1.675 1.217l8.108 1.403-5.735 5.9c-0.507 0.522-0.744 1.249-0.64 1.97l1.171 8.144-7.384-3.631c-0.653-0.321-1.418-0.321-2.071 0l-7.384 3.631 1.171-8.144c0.104-0.72-0.133-1.448-0.64-1.97l-5.735-5.9 8.108-1.403c0.717-0.124 1.336-0.574 1.675-1.217z"></path>
</symbol>
<symbol id="icon-Rating-nofill-1" viewBox="0 0 34 32">
<path fill="#f2f4f7" style="fill: var(--color1, #f2f4f7); stroke: var(--color1, #f2f4f7)" stroke="#f2f4f7" stroke-linejoin="miter" stroke-linecap="butt" stroke-miterlimit="4" stroke-width="2.56" d="M13.227 10.020l3.84-7.277 3.84 7.277c0.34 0.644 0.959 1.093 1.675 1.217l8.108 1.403-5.735 5.9c-0.507 0.522-0.744 1.249-0.64 1.97l1.171 8.144-7.384-3.631c-0.653-0.321-1.418-0.321-2.071 0l-7.384 3.631 1.171-8.144c0.104-0.72-0.133-1.448-0.64-1.97l-5.735-5.9 8.108-1.403c0.717-0.124 1.336-0.574 1.675-1.217z"></path>
</symbol>
<symbol id="icon-Rating-nofill-2" viewBox="0 0 34 32">
<path fill="#f2f4f7" style="fill: var(--color1, #f2f4f7); stroke: var(--color1, #f2f4f7)" stroke="#f2f4f7" stroke-linejoin="miter" stroke-linecap="butt" stroke-miterlimit="4" stroke-width="2.56" d="M13.227 10.020l3.84-7.277 3.84 7.277c0.34 0.644 0.959 1.093 1.675 1.217l8.108 1.403-5.735 5.9c-0.507 0.522-0.744 1.249-0.64 1.97l1.171 8.144-7.384-3.631c-0.653-0.321-1.418-0.321-2.071 0l-7.384 3.631 1.171-8.144c0.104-0.72-0.133-1.448-0.64-1.97l-5.735-5.9 8.108-1.403c0.717-0.124 1.336-0.574 1.675-1.217z"></path>
</symbol>
<symbol id="icon-Rating-nofill-3" viewBox="0 0 34 32">
<path fill="#f2f4f7" style="fill: var(--color1, #f2f4f7); stroke: var(--color1, #f2f4f7)" stroke="#f2f4f7" stroke-linejoin="miter" stroke-linecap="butt" stroke-miterlimit="4" stroke-width="2.56" d="M13.227 10.020l3.84-7.277 3.84 7.277c0.34 0.644 0.959 1.093 1.675 1.217l8.108 1.403-5.735 5.9c-0.507 0.522-0.744 1.249-0.64 1.97l1.171 8.144-7.384-3.631c-0.653-0.321-1.418-0.321-2.071 0l-7.384 3.631 1.171-8.144c0.104-0.72-0.133-1.448-0.64-1.97l-5.735-5.9 8.108-1.403c0.717-0.124 1.336-0.574 1.675-1.217z"></path>
</symbol>
<symbol id="icon-Rating-nofill-4" viewBox="0 0 34 32">
<path fill="#f2f4f7" style="fill: var(--color1, #f2f4f7); stroke: var(--color1, #f2f4f7)" stroke="#f2f4f7" stroke-linejoin="miter" stroke-linecap="butt" stroke-miterlimit="4" stroke-width="2.56" d="M13.227 10.020l3.84-7.277 3.84 7.277c0.34 0.644 0.959 1.093 1.675 1.217l8.108 1.403-5.735 5.9c-0.507 0.522-0.744 1.249-0.64 1.97l1.171 8.144-7.384-3.631c-0.653-0.321-1.418-0.321-2.071 0l-7.384 3.631 1.171-8.144c0.104-0.72-0.133-1.448-0.64-1.97l-5.735-5.9 8.108-1.403c0.717-0.124 1.336-0.574 1.675-1.217z"></path>
</symbol>
<symbol id="icon-Rating-nofill-5" viewBox="0 0 34 32">
<path fill="#f2f4f7" style="fill: var(--color1, #f2f4f7); stroke: var(--color1, #f2f4f7)" stroke="#f2f4f7" stroke-linejoin="miter" stroke-linecap="butt" stroke-miterlimit="4" stroke-width="2.56" d="M13.227 10.020l3.84-7.277 3.84 7.277c0.34 0.644 0.959 1.093 1.675 1.217l8.108 1.403-5.735 5.9c-0.507 0.522-0.744 1.249-0.64 1.97l1.171 8.144-7.384-3.631c-0.653-0.321-1.418-0.321-2.071 0l-7.384 3.631 1.171-8.144c0.104-0.72-0.133-1.448-0.64-1.97l-5.735-5.9 8.108-1.403c0.717-0.124 1.336-0.574 1.675-1.217z"></path>
</symbol>
<symbol id="icon-Rating-nofill" viewBox="0 0 34 32">
<path fill="#f2f4f7" style="fill: var(--color1, #f2f4f7); stroke: var(--color1, #f2f4f7)" stroke="#f2f4f7" stroke-linejoin="miter" stroke-linecap="butt" stroke-miterlimit="4" stroke-width="2.56" d="M13.227 10.020l3.84-7.277 3.84 7.277c0.34 0.644 0.959 1.093 1.675 1.217l8.108 1.403-5.735 5.9c-0.507 0.522-0.744 1.249-0.64 1.97l1.171 8.144-7.384-3.631c-0.653-0.321-1.418-0.321-2.071 0l-7.384 3.631 1.171-8.144c0.104-0.72-0.133-1.448-0.64-1.97l-5.735-5.9 8.108-1.403c0.717-0.124 1.336-0.574 1.675-1.217z"></path>
</symbol>
<symbol id="icon-tv" viewBox="0 0 27 32">
<path stroke="#101828" fill="white" stroke-linejoin="round" stroke-linecap="round" stroke-miterlimit="4" stroke-width="1.8581" d="M21.677 26.323h-16.516c-2.287 0-4.129-1.842-4.129-4.129v-10.323c0-2.287 1.842-4.129 4.129-4.129h16.516c2.287 0 4.129 1.842 4.129 4.129v10.323c0 2.287-1.842 4.129-4.129 4.129z"></path>
<path stroke-linejoin="round" stroke-linecap="round" stroke-miterlimit="4" stroke-width="1.8581" d="M9.29 30.452h8.258"></path>
<path stroke-linejoin="round" stroke-linecap="round" stroke-miterlimit="4" stroke-width="1.8581" d="M13.419 7.742l6.194-6.194"></path>
<path stroke-linejoin="round" stroke-linecap="round" stroke-miterlimit="4" stroke-width="1.8581" d="M13.419 7.742l-6.194-6.194"></path>
</symbol>
<symbol id="icon-Tv-1" viewBox="0 0 31 32">
<path stroke="#101828" fill="white" stroke-linejoin="round" stroke-linecap="round" stroke-miterlimit="4" stroke-width="1.7455" d="M23.273 25.697h-15.515c-2.149 0-3.879-1.73-3.879-3.879v-9.697c0-2.149 1.73-3.879 3.879-3.879h15.515c2.149 0 3.879 1.73 3.879 3.879v9.697c0 2.149-1.73 3.879-3.879 3.879z"></path>
<path stroke="#101828" stroke-linejoin="round" stroke-linecap="round" stroke-miterlimit="4" stroke-width="1.7455" d="M11.636 29.576h7.758"></path>
<path stroke="#101828" stroke-linejoin="round" stroke-linecap="round" stroke-miterlimit="4" stroke-width="1.7455" d="M15.515 8.242l5.818-5.818"></path>
<path stroke="#101828" stroke-linejoin="round" stroke-linecap="round" stroke-miterlimit="4" stroke-width="1.7455" d="M15.515 8.242l-5.818-5.818"></path>
</symbol>
<symbol id="automatic-1" width="20" height="20" viewBox="0 0 20 20" fill="none">
<path d="M14.1667 9.16667H15.4167C15.7482 9.16667 16.0661 9.03497 16.3006 8.80055C16.535 8.56613 16.6667 8.24819 16.6667 7.91667C16.6667 7.58515 16.535 7.2672 16.3006 7.03278C16.0661 6.79836 15.7482 6.66667 15.4167 6.66667H14.1667V10.8333M14.1667 14.1667V17.5H15C15.442 17.5 15.866 17.3244 16.1785 17.0118C16.4911 16.6993 16.6667 16.2754 16.6667 15.8333C16.6667 15.3913 16.4911 14.9674 16.1785 14.6548C15.866 14.3423 15.442 14.1667 15 14.1667H14.1667ZM2.5 4.16667C2.5 4.60869 2.67559 5.03262 2.98816 5.34518C3.30072 5.65774 3.72464 5.83333 4.16667 5.83333C4.60869 5.83333 5.03262 5.65774 5.34518 5.34518C5.65774 5.03262 5.83333 4.60869 5.83333 4.16667C5.83333 3.72464 5.65774 3.30072 5.34518 2.98816C5.03262 2.67559 4.60869 2.5 4.16667 2.5C3.72464 2.5 3.30072 2.67559 2.98816 2.98816C2.67559 3.30072 2.5 3.72464 2.5 4.16667Z" stroke="#101828" stroke-width="1.5" stroke-linecap="round" stroke-linejoin="round"/>
<path d="M4.16675 5.83331V8.33331C4.16675 8.55433 4.25455 8.76629 4.41083 8.92257C4.56711 9.07885 4.77907 9.16665 5.00008 9.16665H7.50008M7.50008 9.16665V15C7.50008 15.221 7.58788 15.433 7.74416 15.5892C7.90044 15.7455 8.1124 15.8333 8.33341 15.8333H10.8334M7.50008 9.16665H10.8334" stroke="#101828" stroke-width="1.5" stroke-linecap="round" stroke-linejoin="round"/>
</symbol>
<!-- <symbol id="icon-ac" viewBox="0 0 32 32">
<path d="M15.504 3.2c-1.501 0-2.956 0.513-4.117 1.45s-1.956 2.241-2.251 3.69l-0.116 0.575c-0.031 0.129-0.035 0.262-0.012 0.392s0.072 0.255 0.144 0.366c0.073 0.111 0.167 0.207 0.278 0.281s0.236 0.126 0.367 0.152c0.132 0.026 0.267 0.025 0.399-0.001s0.256-0.079 0.366-0.155c0.11-0.075 0.204-0.171 0.276-0.283s0.12-0.236 0.142-0.367l0.118-0.573c0.222-1.075 0.84-2.030 1.737-2.681s2.006-0.951 3.114-0.843c1.108 0.108 2.136 0.618 2.884 1.43s1.164 1.868 1.167 2.965c0 1.175-0.474 2.302-1.318 3.134s-1.988 1.298-3.182 1.299h-14.5c-0.265 0-0.52 0.104-0.707 0.288s-0.293 0.435-0.293 0.696c0 0.261 0.105 0.512 0.293 0.696s0.442 0.288 0.707 0.288h14.5c1.696-0.041 3.309-0.733 4.494-1.928s1.849-2.799 1.849-4.47-0.662-3.275-1.846-4.471c-1.184-1.196-2.796-1.889-4.492-1.931zM27 12.062c-1.326 0-2.598 0.519-3.536 1.442s-1.464 2.175-1.464 3.481c0 0.261 0.105 0.512 0.293 0.696s0.442 0.288 0.707 0.288 0.52-0.104 0.707-0.288c0.188-0.185 0.293-0.435 0.293-0.696 0-0.584 0.176-1.155 0.506-1.641s0.798-0.864 1.346-1.088c0.548-0.224 1.151-0.282 1.733-0.168s1.116 0.395 1.536 0.808c0.42 0.413 0.705 0.939 0.821 1.512s0.056 1.167-0.171 1.707c-0.227 0.54-0.612 1.001-1.105 1.326s-1.073 0.498-1.667 0.498h-26c-0.265 0-0.52 0.104-0.707 0.288s-0.293 0.435-0.293 0.696c0 0.261 0.105 0.512 0.293 0.696s0.442 0.288 0.707 0.288h19.5c0.663 0.001 1.298 0.262 1.766 0.724s0.73 1.089 0.729 1.742c-0.001 0.653-0.266 1.279-0.736 1.739s-1.106 0.719-1.769 0.717c-0.597 0-1.175-0.207-1.632-0.587s-0.762-0.905-0.862-1.485l-0.010-0.059c-0.018-0.131-0.062-0.256-0.131-0.37s-0.159-0.212-0.267-0.29-0.23-0.134-0.36-0.165c-0.13-0.031-0.265-0.036-0.397-0.014s-0.258 0.069-0.372 0.14c-0.113 0.071-0.211 0.163-0.287 0.271s-0.129 0.231-0.157 0.36c-0.027 0.129-0.028 0.262-0.002 0.392l0.010 0.059c0.178 1.040 0.724 1.984 1.542 2.664s1.854 1.054 2.924 1.054c1.195 0 2.341-0.466 3.186-1.297s1.322-1.958 1.324-3.134c0-0.912-0.28-1.759-0.758-2.462h2.758c1.326 0 2.598-0.519 3.536-1.442s1.464-2.176 1.464-3.481c0-1.306-0.527-2.558-1.464-3.481s-2.209-1.442-3.536-1.442z"></path>
<path  d="M15.504 3.2l0.198-7.998-0.1-0.002-0.1 0 0.002 8zM9.136 8.34l-7.839-1.595-0.003 0.013 7.842 1.582zM9.020 8.915l7.78 1.865 0.034-0.141 0.029-0.142-7.842-1.582zM10.98 9.301l-7.836-1.614-0.030 0.147-0.025 0.148 7.891 1.318zM11.098 8.728v0zM20 9.598h8v-0.020l-8 0.020zM15.5 14.031v8h0.004l-0.004-8zM0 15.015v0zM15.5 16v8h0.096l0.096-0.002-0.193-7.998zM24 16.985v0zM0 20.923v0zM20.5 21.908l0.016-8h-0.016v8zM20.49 26.831l0.016-8h-0.021l0.006 8zM17.996 24.759l-7.888 1.335 0.002 0.013 0.002 0.013 7.883-1.362zM17.986 24.7l-7.925 1.091 0.017 0.123 0.021 0.122 7.888-1.335zM16.014 25.023l7.888-1.335-0.020-0.119-0.024-0.119-7.844 1.573zM16.024 25.082l-7.888 1.335 0.002 0.014 7.885-1.349zM20.49 28.8l0.004-8h-0.005l0.001 8zM25 24.369l8 0.014v-0.014h-8zM24.242 21.908v-8h-15.114l8.498 12.498 6.616-4.498zM15.502-4.8c-3.317 0.001-6.547 1.131-9.139 3.224l10.049 12.451c-0.271 0.219-0.592 0.325-0.906 0.325l-0.004-16zM6.363-1.576c-2.595 2.095-4.397 5.030-5.066 8.32l15.679 3.19c-0.080 0.392-0.29 0.719-0.564 0.94l-10.049-12.451zM1.294 6.758l-0.116 0.575 15.684 3.164 0.116-0.575-15.684-3.164zM1.24 7.050c-0.285 1.188-0.324 2.423-0.115 3.627l15.764-2.74c0.164 0.944 0.133 1.912-0.090 2.843l-15.559-3.73zM1.126 10.677c0.209 1.205 0.662 2.349 1.325 3.366l13.402-8.74c0.518 0.794 0.872 1.69 1.037 2.634l-15.764 2.74zM2.451 14.043c0.663 1.017 1.521 1.883 2.518 2.552l8.922-13.282c0.775 0.521 1.444 1.195 1.962 1.99l-13.402 8.74zM4.969 16.595c0.997 0.67 2.113 1.13 3.283 1.361l3.091-15.699c0.906 0.178 1.773 0.536 2.548 1.056l-8.922 13.282zM8.251 17.956c1.169 0.23 2.373 0.226 3.54-0.011l-3.192-15.678c0.905-0.184 1.837-0.187 2.743-0.009l-3.091 15.699zM11.792 17.944c1.168-0.238 2.282-0.706 3.274-1.382l-9.008-13.224c0.772-0.526 1.636-0.889 2.541-1.073l3.192 15.678zM15.066 16.562c0.993-0.676 1.845-1.548 2.502-2.569l-13.459-8.652c0.513-0.798 1.178-1.477 1.95-2.003l9.008 13.224zM17.568 13.993c0.656-1.021 1.101-2.169 1.303-3.375l-15.781-2.636c0.158-0.945 0.506-1.843 1.019-2.641l13.459 8.652zM18.816 10.914l0.118-0.573-15.671-3.227-0.118 0.573 15.671 3.227zM18.933 10.344c-0.185 0.898-0.696 1.667-1.396 2.175l-9.405-12.944c-2.492 1.81-4.241 4.489-4.869 7.537l15.67 3.233zM17.537 12.519c-0.696 0.506-1.539 0.728-2.367 0.647l1.557-15.924c-3.044-0.298-6.106 0.525-8.594 2.333l9.405 12.944zM15.17 13.166c-0.829-0.081-1.623-0.464-2.218-1.11l11.763-10.846c-2.092-2.269-4.942-3.671-7.988-3.969l-1.557 15.924zM12.951 12.056c-0.598-0.649-0.949-1.516-0.951-2.438l16-0.040c-0.008-3.115-1.19-6.095-3.286-8.368l-11.763 10.846zM12 9.598c0-0.986 0.399-1.907 1.068-2.566l11.228 11.399c2.357-2.322 3.704-5.496 3.704-8.833h-16zM13.068 7.032c0.665-0.655 1.541-1.001 2.428-1.002l0.007 16c3.275-0.001 6.44-1.282 8.793-3.6l-11.228-11.399zM15.5 6.031h-14.5v16h14.5v-16zM1 6.031c-2.347 0-4.623 0.917-6.32 2.588l11.226 11.401c-1.322 1.302-3.089 2.011-4.906 2.011v-16zM-5.32 8.619c-1.701 1.675-2.68 3.974-2.68 6.397h16c0 1.901-0.768 3.699-2.094 5.004l-11.226-11.401zM-8 15.015c0 2.423 0.979 4.722 2.68 6.397l11.226-11.401c1.326 1.306 2.094 3.103 2.094 5.004h-16zM-5.32 21.412c1.697 1.671 3.973 2.588 6.32 2.588v-16c1.817 0 3.584 0.709 4.906 2.011l-11.226 11.401zM1 24h14.5v-16h-14.5v16zM15.693 23.998c3.744-0.090 7.329-1.617 9.982-4.294l-11.363-11.264c0.283-0.285 0.643-0.429 0.995-0.437l0.386 15.995zM25.675 19.704c2.657-2.68 4.167-6.302 4.168-10.1l-16-0.005c0-0.456 0.183-0.87 0.47-1.16l11.363 11.264zM29.843 9.604c0.001-3.797-1.506-7.42-4.161-10.102l-11.37 11.257c-0.287-0.29-0.469-0.704-0.469-1.16l16 0.005zM25.681-0.498c-2.651-2.678-6.236-4.207-9.98-4.3l-0.396 15.995c-0.352-0.009-0.712-0.152-0.995-0.438l11.37-11.257zM27 4.062c-3.408 0-6.701 1.332-9.148 3.741l11.226 11.401c-0.572 0.563-1.321 0.858-2.077 0.858v-16zM17.852 7.803c-2.451 2.414-3.852 5.714-3.852 9.182h16c0 0.856-0.347 1.652-0.923 2.219l-11.226-11.401zM14 16.985c0 2.423 0.979 4.722 2.68 6.397l11.226-11.401c1.326 1.306 2.094 3.103 2.094 5.004h-16zM16.68 23.381c1.697 1.671 3.973 2.588 6.32 2.588v-16c1.817 0 3.584 0.709 4.906 2.011l-11.226 11.401zM23 25.969c2.347 0 4.623-0.917 6.32-2.588l-11.226-11.401c1.322-1.302 3.089-2.011 4.906-2.011v16zM29.32 23.381c1.701-1.675 2.68-3.974 2.68-6.397h-16c0-1.901 0.768-3.699 2.094-5.004l11.226 11.401zM32 16.985c0 1.026-0.31 2.018-0.875 2.851l-13.239-8.985c-1.224 1.804-1.886 3.939-1.886 6.133h16zM31.125 19.836c-0.564 0.831-1.353 1.461-2.252 1.827l-6.042-14.815c-1.996 0.814-3.722 2.2-4.945 4.003l13.239 8.985zM28.873 21.663c-0.898 0.366-1.88 0.46-2.825 0.275l3.075-15.702c-2.11-0.413-4.297-0.202-6.292 0.611l6.042 14.815zM26.048 21.938c-0.946-0.185-1.832-0.646-2.539-1.342l11.226-11.401c-1.546-1.522-3.501-2.545-5.611-2.959l-3.075 15.702zM23.508 20.596c-0.708-0.697-1.205-1.601-1.408-2.604l15.683-3.168c-0.434-2.149-1.502-4.105-3.050-5.629l-11.226 11.401zM22.101 17.992c-0.203-1.004-0.098-2.042 0.297-2.98l14.748 6.204c0.848-2.017 1.072-4.243 0.638-6.393l-15.683 3.168zM22.398 15.013c0.394-0.936 1.052-1.716 1.872-2.256l8.794 13.367c1.807-1.189 3.234-2.891 4.082-4.907l-14.748-6.204zM24.27 12.757c0.819-0.539 1.769-0.819 2.73-0.819v16c2.148 0 4.258-0.627 6.064-1.814l-8.794-13.367zM27 11.938h-26v16h26v-16zM1 11.938c-2.347 0-4.623 0.917-6.32 2.588l11.226 11.401c-1.322 1.302-3.089 2.011-4.906 2.011v-16zM-5.32 14.526c-1.701 1.675-2.68 3.974-2.68 6.397h16c0 1.901-0.768 3.699-2.094 5.004l-11.226-11.401zM-8 20.923c0 2.423 0.979 4.722 2.68 6.397l11.226-11.401c1.326 1.306 2.094 3.103 2.094 5.004h-16zM-5.32 27.32c1.697 1.671 3.973 2.588 6.32 2.588v-16c1.817 0 3.584 0.709 4.906 2.011l-11.226 11.401zM1 29.908h19.5v-16h-19.5v16zM20.484 29.908c-1.419-0.003-2.804-0.559-3.842-1.586l11.248-11.379c-1.975-1.952-4.63-3.030-7.375-3.035l-0.031 16zM16.642 28.321c-1.043-1.031-1.65-2.454-1.647-3.964l16 0.032c0.006-2.815-1.126-5.492-3.104-7.448l-11.248 11.379zM14.995 24.358c0.003-1.509 0.616-2.93 1.663-3.956l11.203 11.423c1.986-1.948 3.129-4.62 3.134-7.435l-16-0.032zM16.658 20.402c1.043-1.023 2.429-1.574 3.848-1.571l-0.032 16c2.745 0.005 5.404-1.062 7.386-3.006l-11.203-11.423zM20.484 18.831c1.259-0.001 2.494 0.436 3.485 1.26l-10.223 12.308c1.904 1.582 4.296 2.434 6.749 2.433l-0.011-16zM23.97 20.090c0.994 0.826 1.682 1.992 1.909 3.307l-15.766 2.724c0.427 2.474 1.726 4.693 3.634 6.277l10.223-12.308zM25.884 23.424l-0.010-0.059-15.776 2.67 0.010 0.059 15.776-2.67zM25.911 23.609c-0.166-1.208-0.577-2.366-1.201-3.404l-13.709 8.25c-0.488-0.812-0.81-1.717-0.94-2.665l15.851-2.181zM24.71 20.205c-0.625-1.038-1.449-1.933-2.419-2.638l-9.404 12.945c-0.755-0.548-1.398-1.246-1.886-2.057l13.709-8.25zM22.291 17.568c-0.97-0.704-2.066-1.205-3.224-1.479l-3.678 15.572c-0.897-0.212-1.748-0.6-2.503-1.148l9.404-12.945zM19.067 16.089c-1.157-0.273-2.356-0.315-3.529-0.123l2.586 15.79c-0.908 0.149-1.838 0.117-2.734-0.095l3.678-15.572zM15.538 15.966c-1.173 0.192-2.3 0.615-3.315 1.248l8.473 13.572c-0.789 0.492-1.664 0.82-2.572 0.969l-2.586-15.79zM12.223 17.214c-1.015 0.634-1.899 1.467-2.595 2.456l13.089 9.202c-0.543 0.772-1.232 1.421-2.021 1.914l-8.473-13.572zM9.628 19.671c-0.696 0.989-1.187 2.113-1.439 3.306l15.654 3.31c-0.198 0.934-0.583 1.814-1.126 2.586l-13.089-9.202zM8.189 22.976c-0.252 1.193-0.259 2.424-0.019 3.62l15.688-3.146c0.188 0.937 0.183 1.902-0.015 2.837l-15.654-3.31zM8.126 26.358l0.010 0.059 15.776-2.67-0.010-0.059-15.776 2.67zM8.139 26.431c0.502 2.936 2.041 5.575 4.309 7.464l10.237-12.297c0.633 0.527 1.079 1.279 1.225 2.135l-15.771 2.698zM12.447 33.895c2.265 1.886 5.116 2.906 8.044 2.905l-0.003-16c0.787-0 1.565 0.273 2.196 0.798l-10.237 12.297zM20.487 36.8c3.275 0.001 6.441-1.276 8.796-3.59l-11.213-11.414c0.664-0.652 1.538-0.997 2.424-0.997l-0.007 16zM29.283 33.21c2.36-2.318 3.711-5.49 3.717-8.827l-16-0.029c0.002-0.984 0.401-1.902 1.070-2.558l11.213 11.414zM33 24.369c0-2.576-0.797-4.981-2.142-6.96l-13.231 8.996c-0.389-0.573-0.626-1.284-0.626-2.037h16zM24.242 29.908h2.758v-16h-2.758v16zM27 29.908c3.408 0 6.701-1.332 9.148-3.741l-11.226-11.401c0.572-0.563 1.321-0.858 2.077-0.858v16zM36.148 26.166c2.451-2.414 3.852-5.714 3.852-9.182h-16c0-0.856 0.347-1.652 0.923-2.219l11.226 11.401zM40 16.985c0-3.468-1.4-6.768-3.852-9.182l-11.226 11.401c-0.576-0.567-0.923-1.363-0.923-2.219h16zM36.148 7.803c-2.447-2.41-5.74-3.741-9.148-3.741v16c-0.756 0-1.505-0.295-2.077-0.858l11.226-11.401z"></path>
</symbol> -->
<symbol id="ac-1" width="20" height="20" viewBox="0 0 20 20" fill="none">
<path  stroke="#101828" d="M9.69 2C8.7518 2.00021 7.84263 2.32033 7.11706 2.90595C6.39148 3.49157 5.89429 4.30654 5.71 5.21231L5.6375 5.57169C5.61823 5.65208 5.61559 5.73546 5.62974 5.81688C5.64389 5.89829 5.67454 5.97606 5.71986 6.04556C5.76519 6.11507 5.82426 6.17487 5.89355 6.22142C5.96285 6.26797 6.04095 6.30031 6.12321 6.31651C6.20547 6.3327 6.29019 6.33243 6.37234 6.31571C6.45449 6.29898 6.53238 6.26614 6.60137 6.21915C6.67035 6.17216 6.72903 6.11198 6.77389 6.04219C6.81875 5.97239 6.84889 5.89442 6.8625 5.81292L6.93625 5.45477C7.0748 4.7832 7.46155 4.18615 8.02159 3.77926C8.58162 3.37237 9.27509 3.1846 9.96769 3.25232C10.6603 3.32004 11.3027 3.63843 11.7705 4.14581C12.2384 4.6532 12.4983 5.31348 12.5 5.99877C12.5 6.73333 12.2037 7.43782 11.6763 7.95735C11.1489 8.47687 10.4335 8.7689 9.6875 8.76923H0.625C0.45924 8.76923 0.300269 8.83407 0.183058 8.94947C0.0658481 9.06488 0 9.22141 0 9.38462C0 9.54783 0.0658481 9.70435 0.183058 9.81976C0.300269 9.93517 0.45924 10 0.625 10H9.6875C10.7475 9.97443 11.7554 9.54194 12.496 8.79485C13.2367 8.04775 13.6514 7.04521 13.6517 6.0012C13.652 4.95719 13.2379 3.9544 12.4978 3.20686C11.7576 2.45931 10.75 2.02621 9.69 2ZM16.875 7.53846C16.0462 7.53846 15.2513 7.86264 14.6653 8.43967C14.0792 9.01671 13.75 9.79933 13.75 10.6154C13.75 10.7786 13.8158 10.9351 13.9331 11.0505C14.0503 11.1659 14.2092 11.2308 14.375 11.2308C14.5408 11.2308 14.6997 11.1659 14.8169 11.0505C14.9342 10.9351 15 10.7786 15 10.6154C15 10.2502 15.11 9.89332 15.316 9.58972C15.522 9.28612 15.8149 9.04949 16.1575 8.90976C16.5001 8.77003 16.8771 8.73347 17.2408 8.8047C17.6045 8.87594 17.9386 9.05177 18.2008 9.30996C18.463 9.56815 18.6416 9.8971 18.714 10.2552C18.7863 10.6133 18.7492 10.9845 18.6073 11.3219C18.4654 11.6592 18.225 11.9475 17.9167 12.1504C17.6084 12.3533 17.2458 12.4615 16.875 12.4615H0.625C0.45924 12.4615 0.300269 12.5264 0.183058 12.6418C0.0658481 12.7572 0 12.9137 0 13.0769C0 13.2401 0.0658481 13.3967 0.183058 13.5121C0.300269 13.6275 0.45924 13.6923 0.625 13.6923H12.8125C13.2269 13.6931 13.624 13.856 13.9164 14.1451C14.2089 14.4342 14.3727 14.8258 14.3719 15.2338C14.371 15.6419 14.2056 16.0329 13.912 16.3208C13.6184 16.6087 13.2207 16.77 12.8062 16.7692C12.433 16.7695 12.0716 16.6396 11.7863 16.4026C11.501 16.1656 11.3101 15.8368 11.2475 15.4745L11.2413 15.4375C11.23 15.3559 11.2023 15.2773 11.1596 15.2065C11.117 15.1356 11.0603 15.0739 10.993 15.025C10.9257 14.9761 10.849 14.941 10.7677 14.9218C10.6863 14.9025 10.6019 14.8996 10.5194 14.9131C10.4368 14.9266 10.3579 14.9563 10.2872 15.0004C10.2166 15.0445 10.1556 15.1022 10.108 15.1699C10.0604 15.2376 10.0271 15.3141 10.01 15.3947C9.99298 15.4754 9.99254 15.5586 10.0087 15.6394L10.015 15.6763C10.1261 16.326 10.4675 16.916 10.9785 17.3414C11.4895 17.7668 12.1371 18.0001 12.8062 18C13.5528 18.0003 14.2691 17.7089 14.7976 17.1896C15.3261 16.6704 15.6237 15.9659 15.625 15.2308C15.625 14.6609 15.45 14.1317 15.1513 13.6923H16.875C17.7038 13.6923 18.4987 13.3681 19.0847 12.7911C19.6708 12.2141 20 11.4314 20 10.6154C20 9.79933 19.6708 9.01671 19.0847 8.43967C18.4987 7.86264 17.7038 7.53846 16.875 7.53846Z" fill="#101828"/>
</symbol>
<symbol id="icon-close" viewBox="0 0 32 32">
<path stroke="#101828" fill="white" stroke-linejoin="round" stroke-linecap="round" stroke-miterlimit="4" stroke-width="3" d="M24 8l-16 16"></path>
<path stroke="#101828" fill="white" stroke-linejoin="round" stroke-linecap="round" stroke-miterlimit="4" stroke-width="3" d="M8 8l16 16"></path>
</symbol>
<symbol id="icon-arrow" viewBox="0 0 32 32">
<path fill="none" stroke="#e6533c" style="stroke: var(--color1, #e6533c)" stroke-linejoin="round" stroke-linecap="round" stroke-miterlimit="4" stroke-width="2.6" d="M15 28l13-13M28 15l-13-13M28 15h-26"></path>
</symbol>
<symbol id="icon-burger" viewBox="0 0 32 32">
<path fill="#fff" style="fill: var(--color1, #fff)" d="M16 3.5c-6.904 0-12.5 5.596-12.5 12.5s5.596 12.5 12.5 12.5v0c6.904 0 12.5-5.596 12.5-12.5s-5.596-12.5-12.5-12.5v0z"></path>
<path fill="#444b54" style="fill: var(--color2, #444b54)" d="M16 29.25c-7.3 0-13.25-5.95-13.25-13.25s5.95-13.25 13.25-13.25 13.25 5.95 13.25 13.25-5.95 13.25-13.25 13.25zM16 4.25c-6.475 0-11.75 5.275-11.75 11.75s5.275 11.75 11.75 11.75 11.75-5.275 11.75-11.75-5.275-11.75-11.75-11.75z"></path>
<path fill="#444b54" style="fill: var(--color2, #444b54)" d="M21.625 13h-11.25c-0.425 0-0.75-0.325-0.75-0.75s0.325-0.75 0.75-0.75h11.25c0.425 0 0.75 0.325 0.75 0.75s-0.325 0.75-0.75 0.75zM21.625 16.75h-11.25c-0.425 0-0.75-0.325-0.75-0.75s0.325-0.75 0.75-0.75h11.25c0.425 0 0.75 0.325 0.75 0.75s-0.325 0.75-0.75 0.75z"></path>
<path fill="#444b54" style="fill: var(--color2, #444b54)" d="M21.625 20.5h-11.25c-0.425 0-0.75-0.325-0.75-0.75s0.325-0.75 0.75-0.75h11.25c0.425 0 0.75 0.325 0.75 0.75s-0.325 0.75-0.75 0.75z"></path>
</symbol>
</defs>
</svg>
